<?xml version="1.0" encoding="UTF-8"?>
<svg xmlns="http://www.w3.org/2000/svg" xmlns:xlink="http://www.w3.org/1999/xlink" width="276px" height="66px" viewBox="0 0 276 66" version="1.1">
<g id="surface1">
<path style=" stroke:none;fill-rule:nonzero;fill:rgb(99.607843%,99.607843%,99.607843%);fill-opacity:1;" d="M 0 0 C 91.078125 0 182.160156 0 276 0 C 276 21.78125 276 43.558594 276 66 C 184.921875 66 93.839844 66 0 66 C 0 44.21875 0 22.441406 0 0 Z M 0 0 "/>
<path style=" stroke:none;fill-rule:nonzero;fill:rgb(97.647059%,20%,20%);fill-opacity:1;" d="M 262.523438 16.074219 C 265.167969 18.84375 265.644531 22.023438 265.625 25.714844 C 265.621094 26.039062 265.621094 26.367188 265.617188 26.707031 C 265.472656 36.136719 262.394531 47.328125 255.746094 54.222656 C 253.394531 56.40625 250.332031 57.332031 247.15625 57.375 C 244.859375 57.230469 243.019531 56.550781 241.421875 54.859375 C 238.234375 50.773438 238.449219 45.171875 239.042969 40.300781 C 240.101562 32.382812 242.691406 22.542969 249.058594 17.234375 C 253.070312 14.304688 258.15625 13.21875 262.523438 16.074219 Z M 262.523438 16.074219 "/>
<path style=" stroke:none;fill-rule:nonzero;fill:rgb(97.647059%,20%,20%);fill-opacity:1;" d="M 235.648438 16.652344 C 237.777344 18.648438 238.675781 21.578125 238.800781 24.4375 C 239.027344 34.617188 236.378906 46.8125 229.199219 54.453125 C 226.363281 57.148438 223.449219 57.859375 219.648438 57.777344 C 217.671875 57.664062 216.1875 56.96875 214.761719 55.597656 C 212.871094 53.320312 212.042969 50.414062 211.929688 47.496094 C 211.914062 47.21875 211.898438 46.945312 211.878906 46.660156 C 211.585938 37.117188 214.699219 26.484375 220.863281 19.121094 C 224.578125 15.171875 230.921875 13.257812 235.648438 16.652344 Z M 235.648438 16.652344 "/>
<path style=" stroke:none;fill-rule:nonzero;fill:rgb(21.176471%,18.431373%,17.647059%);fill-opacity:1;" d="M 145.085938 28.375 C 146.734375 28.351562 148.382812 28.335938 150.03125 28.324219 C 150.589844 28.320312 151.152344 28.3125 151.710938 28.304688 C 159.523438 28.195312 159.523438 28.195312 162.402344 30.597656 C 164.835938 33.042969 165.75 35.917969 165.820312 39.324219 C 165.730469 42.558594 165.324219 45.546875 163.125 48.035156 C 162.863281 48.265625 162.601562 48.492188 162.335938 48.730469 C 162.113281 48.945312 161.890625 49.160156 161.660156 49.382812 C 159.539062 50.800781 157.140625 51.023438 154.652344 50.976562 C 154.238281 50.976562 154.238281 50.976562 153.816406 50.972656 C 152.945312 50.96875 152.078125 50.957031 151.207031 50.945312 C 150.613281 50.941406 150.019531 50.9375 149.421875 50.933594 C 147.976562 50.921875 146.53125 50.90625 145.085938 50.886719 C 145.085938 50.683594 145.085938 50.480469 145.085938 50.269531 C 145.390625 50.117188 145.390625 50.117188 145.699219 49.960938 C 145.714844 47.328125 145.726562 44.699219 145.734375 42.066406 C 145.734375 40.84375 145.742188 39.621094 145.746094 38.398438 C 145.753906 37.21875 145.757812 36.039062 145.757812 34.859375 C 145.761719 34.40625 145.761719 33.957031 145.765625 33.507812 C 145.769531 32.878906 145.769531 32.246094 145.769531 31.617188 C 145.773438 31.257812 145.773438 30.898438 145.773438 30.527344 C 145.703125 29.636719 145.550781 29.125 145.085938 28.375 Z M 145.085938 28.375 "/>
<path style=" stroke:none;fill-rule:nonzero;fill:rgb(97.647059%,20%,20%);fill-opacity:1;" d="M 205.75 16.578125 C 206.746094 17.183594 207.472656 17.734375 207.925781 18.8125 C 208.378906 21.957031 207.410156 24.984375 206.613281 27.988281 C 206.476562 28.519531 206.339844 29.050781 206.203125 29.582031 C 205.910156 30.722656 205.617188 31.863281 205.320312 33.003906 C 204.550781 35.976562 203.8125 38.953125 203.070312 41.933594 C 202.824219 42.914062 202.578125 43.898438 202.332031 44.878906 C 202.179688 45.488281 202.03125 46.09375 201.878906 46.699219 C 201.773438 47.113281 201.773438 47.113281 201.667969 47.539062 C 201.363281 48.753906 201.066406 49.964844 200.839844 51.195312 C 201.207031 51.175781 201.578125 51.15625 201.957031 51.136719 C 203.726562 51.148438 204.746094 51.714844 206 52.96875 C 206.757812 54.070312 207.023438 54.84375 207.308594 56.128906 C 206.515625 56.921875 206.152344 56.847656 205.050781 56.910156 C 204.710938 56.929688 204.375 56.953125 204.023438 56.972656 C 203.660156 56.996094 203.292969 57.015625 202.917969 57.035156 C 199.835938 57.230469 196.800781 57.527344 193.75 58.019531 C 192.339844 58.234375 191.152344 58.371094 189.75 57.980469 C 188.433594 56.9375 187.8125 55.867188 187.285156 54.28125 C 187.285156 53.667969 187.285156 53.058594 187.285156 52.429688 C 189.726562 52.328125 192.164062 52.226562 194.679688 52.121094 C 194.882812 51.003906 195.085938 49.882812 195.292969 48.730469 C 195.457031 48.015625 195.625 47.304688 195.800781 46.59375 C 195.898438 46.214844 195.992188 45.832031 196.09375 45.4375 C 196.195312 45.03125 196.296875 44.625 196.402344 44.222656 C 196.507812 43.792969 196.617188 43.363281 196.722656 42.9375 C 197.003906 41.816406 197.285156 40.699219 197.566406 39.578125 C 198.019531 37.792969 198.46875 36.003906 198.917969 34.214844 C 199.070312 33.601562 199.226562 32.984375 199.382812 32.367188 C 200 29.910156 200.589844 27.449219 201.148438 24.980469 C 200.996094 25.277344 200.839844 25.574219 200.683594 25.882812 C 200.472656 26.277344 200.261719 26.667969 200.050781 27.0625 C 199.949219 27.257812 199.851562 27.453125 199.75 27.65625 C 198.914062 29.179688 198.125 29.835938 196.527344 30.53125 C 195.574219 30.652344 195.574219 30.652344 194.699219 30.609375 C 194.402344 30.597656 194.109375 30.585938 193.804688 30.574219 C 193.585938 30.5625 193.363281 30.546875 193.136719 30.53125 C 192.824219 29.746094 192.753906 29.195312 193.054688 28.394531 C 193.417969 27.675781 193.800781 26.972656 194.199219 26.273438 C 194.484375 25.75 194.769531 25.226562 195.054688 24.703125 C 195.199219 24.4375 195.34375 24.175781 195.492188 23.90625 C 196.214844 22.566406 196.871094 21.195312 197.519531 19.816406 C 198.25 18.308594 199.125 16.949219 200.472656 15.921875 C 202.410156 15.367188 203.992188 15.695312 205.75 16.578125 Z M 205.75 16.578125 "/>
<path style=" stroke:none;fill-rule:nonzero;fill:rgb(99.607843%,98.431373%,98.039216%);fill-opacity:1;" d="M 229.660156 20.144531 C 231.070312 21.121094 231.636719 23.019531 231.949219 24.671875 C 232.488281 33.019531 230.5625 43.695312 225 50.15625 C 224 51.1875 223.089844 52.117188 221.785156 52.738281 C 220.957031 52.738281 220.957031 52.738281 220.246094 52.429688 C 218.519531 50.699219 218.574219 48.296875 218.570312 46.011719 C 218.574219 38.335938 220.449219 27.582031 226 21.78125 C 227.078125 20.761719 228.125 19.957031 229.660156 20.144531 Z M 229.660156 20.144531 "/>
<path style=" stroke:none;fill-rule:nonzero;fill:rgb(99.607843%,98.431373%,98.431373%);fill-opacity:1;" d="M 255.976562 19.429688 C 257.5625 20.5 258.15625 21.675781 258.617188 23.515625 C 259.882812 31.511719 257.21875 40.957031 253.207031 47.804688 C 253.058594 48.058594 252.910156 48.3125 252.757812 48.574219 C 251.5625 50.386719 249.824219 51.371094 247.96875 52.429688 C 246.570312 51.5625 246.105469 50.710938 245.664062 49.183594 C 245.398438 47.902344 245.367188 46.660156 245.390625 45.355469 C 245.390625 45.074219 245.394531 44.792969 245.398438 44.5 C 245.566406 37.03125 247.480469 26.828125 252.84375 21.320312 C 253.8125 20.441406 254.707031 19.816406 255.976562 19.429688 Z M 255.976562 19.429688 "/>
<path style=" stroke:none;fill-rule:nonzero;fill:rgb(21.176471%,18.431373%,18.039216%);fill-opacity:1;" d="M 21.367188 14.140625 C 22.921875 15.035156 24.261719 16.398438 25.257812 17.886719 C 25.257812 18.191406 25.257812 18.5 25.257812 18.8125 C 24.488281 19.488281 24.488281 19.488281 23.71875 20.046875 C 23.035156 19.726562 22.503906 19.445312 21.949219 18.929688 C 20.921875 18.300781 19.964844 18.28125 18.789062 18.503906 C 17.875 19.183594 17.609375 19.578125 17.25 20.664062 C 17.164062 21.394531 17.164062 21.394531 17.152344 22.207031 C 17.140625 22.472656 17.128906 22.738281 17.117188 23.015625 C 17.503906 26.070312 19.042969 28.488281 20.753906 30.976562 C 24.003906 35.738281 26.382812 39.914062 25.433594 45.859375 C 24.859375 47.902344 23.609375 49.519531 21.847656 50.699219 C 20.070312 51.609375 18.292969 51.824219 16.324219 51.503906 C 14.242188 50.785156 12.597656 49.339844 11.398438 47.496094 C 11.398438 47.191406 11.398438 46.882812 11.398438 46.570312 C 12.167969 45.894531 12.167969 45.894531 12.9375 45.335938 C 13.621094 45.65625 14.152344 45.9375 14.707031 46.453125 C 15.734375 47.082031 16.691406 47.101562 17.867188 46.878906 C 18.78125 46.199219 19.046875 45.804688 19.40625 44.71875 C 19.851562 39.433594 17.027344 35.726562 14.09375 31.574219 C 11.808594 28.191406 10.726562 24.425781 11.089844 20.355469 C 11.714844 17.839844 13.027344 15.714844 15.265625 14.359375 C 17.144531 13.53125 19.4375 13.449219 21.367188 14.140625 Z M 21.367188 14.140625 "/>
<path style=" stroke:none;fill-rule:nonzero;fill:rgb(21.176471%,18.431373%,18.039216%);fill-opacity:1;" d="M 30.1875 28.375 C 32.21875 28.375 34.253906 28.375 36.347656 28.375 C 36.144531 28.78125 35.941406 29.1875 35.730469 29.609375 C 35.621094 30.503906 35.621094 30.503906 35.605469 31.480469 C 35.59375 31.804688 35.582031 32.128906 35.570312 32.460938 C 35.5625 32.867188 35.550781 33.273438 35.539062 33.695312 C 35.484375 35.640625 35.484375 35.640625 35.425781 37.625 C 38.574219 37.625 41.726562 37.625 44.972656 37.625 C 44.929688 36.269531 44.882812 34.917969 44.839844 33.519531 C 44.824219 33.09375 44.8125 32.667969 44.796875 32.230469 C 44.78125 31.726562 44.78125 31.726562 44.761719 31.210938 C 44.746094 30.695312 44.746094 30.695312 44.726562 30.167969 C 44.699219 29.273438 44.699219 29.273438 44.355469 28.375 C 46.289062 28.375 48.21875 28.375 50.210938 28.375 C 50.109375 28.679688 50.007812 28.984375 49.902344 29.300781 C 49.875 29.964844 49.867188 30.632812 49.867188 31.300781 C 49.867188 31.503906 49.867188 31.703125 49.867188 31.910156 C 49.867188 32.578125 49.871094 33.242188 49.871094 33.910156 C 49.871094 34.371094 49.871094 34.832031 49.871094 35.296875 C 49.875 36.511719 49.878906 37.726562 49.878906 38.941406 C 49.882812 40.183594 49.886719 41.421875 49.886719 42.664062 C 49.890625 45.097656 49.894531 47.527344 49.902344 49.960938 C 50.105469 50.0625 50.308594 50.167969 50.519531 50.269531 C 50.519531 50.472656 50.519531 50.679688 50.519531 50.886719 C 48.484375 50.886719 46.453125 50.886719 44.355469 50.886719 C 44.507812 50.429688 44.507812 50.429688 44.664062 49.960938 C 44.710938 49.304688 44.742188 48.644531 44.761719 47.984375 C 44.773438 47.636719 44.785156 47.285156 44.796875 46.925781 C 44.8125 46.484375 44.824219 46.042969 44.839844 45.585938 C 44.882812 44.179688 44.925781 42.777344 44.972656 41.328125 C 41.820312 41.328125 38.671875 41.328125 35.425781 41.328125 C 35.578125 45.753906 35.578125 45.753906 35.730469 50.269531 C 35.933594 50.269531 36.140625 50.269531 36.347656 50.269531 C 36.347656 50.472656 36.347656 50.679688 36.347656 50.886719 C 34.316406 50.886719 32.28125 50.886719 30.1875 50.886719 C 30.1875 50.683594 30.1875 50.480469 30.1875 50.269531 C 30.390625 50.269531 30.59375 50.269531 30.804688 50.269531 C 30.816406 47.597656 30.828125 44.925781 30.835938 42.253906 C 30.839844 41.011719 30.84375 39.769531 30.851562 38.527344 C 30.855469 37.332031 30.859375 36.132812 30.863281 34.933594 C 30.863281 34.480469 30.867188 34.023438 30.867188 33.566406 C 30.875 32.925781 30.875 32.285156 30.875 31.644531 C 30.875 31.28125 30.875 30.914062 30.878906 30.539062 C 30.855469 29.519531 30.855469 29.519531 30.1875 28.375 Z M 30.1875 28.375 "/>
<path style=" stroke:none;fill-rule:nonzero;fill:rgb(21.568627%,19.215686%,18.431373%);fill-opacity:1;" d="M 125.988281 28.375 C 128.019531 28.375 130.050781 28.375 132.148438 28.375 C 132.300781 29.746094 132.300781 29.746094 132.457031 31.148438 C 132.679688 32.0625 132.679688 32.0625 132.980469 32.894531 C 133.085938 33.203125 133.195312 33.515625 133.304688 33.839844 C 133.417969 34.164062 133.535156 34.492188 133.65625 34.832031 C 133.773438 35.175781 133.894531 35.523438 134.019531 35.878906 C 134.269531 36.605469 134.523438 37.332031 134.78125 38.058594 C 135.167969 39.164062 135.550781 40.269531 135.9375 41.378906 C 136.183594 42.085938 136.429688 42.796875 136.675781 43.503906 C 136.792969 43.832031 136.90625 44.160156 137.023438 44.5 C 137.609375 46.164062 138.238281 47.789062 138.980469 49.394531 C 139.230469 49.960938 139.230469 49.960938 139.539062 50.886719 C 137.507812 50.886719 135.472656 50.886719 133.378906 50.886719 C 133.378906 50.683594 133.378906 50.480469 133.378906 50.269531 C 133.582031 50.269531 133.785156 50.269531 133.996094 50.269531 C 133.6875 48.769531 133.347656 47.375 132.761719 45.953125 C 132.761719 45.648438 132.761719 45.34375 132.761719 45.027344 C 130.121094 45.027344 127.476562 45.027344 124.753906 45.027344 C 124.652344 45.742188 124.550781 46.453125 124.445312 47.1875 C 124.332031 47.441406 124.21875 47.695312 124.101562 47.957031 C 123.691406 48.9375 123.691406 48.9375 124.136719 50.886719 C 122.410156 50.886719 120.683594 50.886719 118.902344 50.886719 C 119.105469 50.378906 119.308594 49.871094 119.519531 49.347656 C 119.804688 48.523438 120.089844 47.703125 120.367188 46.882812 C 120.449219 46.640625 120.53125 46.402344 120.613281 46.15625 C 120.96875 45.117188 121.320312 44.078125 121.675781 43.035156 C 123.464844 37.765625 123.464844 37.765625 124.335938 35.351562 C 124.449219 35.027344 124.566406 34.707031 124.683594 34.375 C 124.890625 33.796875 125.101562 33.222656 125.3125 32.648438 C 125.402344 32.398438 125.496094 32.144531 125.589844 31.882812 C 125.703125 31.566406 125.703125 31.566406 125.824219 31.242188 C 126.066406 30.304688 126.066406 30.304688 125.988281 28.375 Z M 125.988281 28.375 "/>
<path style=" stroke:none;fill-rule:nonzero;fill:rgb(20.784314%,18.039216%,17.254902%);fill-opacity:1;" d="M 113.050781 27.449219 C 113.253906 27.449219 113.457031 27.449219 113.664062 27.449219 C 113.664062 29.382812 113.664062 31.316406 113.664062 33.308594 C 113.460938 33.308594 113.257812 33.308594 113.050781 33.308594 C 112.933594 33.109375 112.8125 32.910156 112.691406 32.703125 C 112.148438 31.96875 112.148438 31.96875 111.085938 31.90625 C 110.660156 31.894531 110.238281 31.886719 109.8125 31.886719 C 109.476562 31.878906 109.476562 31.878906 109.132812 31.871094 C 108.414062 31.855469 107.699219 31.851562 106.984375 31.84375 C 106.5 31.835938 106.011719 31.824219 105.527344 31.816406 C 104.339844 31.792969 103.148438 31.78125 101.960938 31.765625 C 101.960938 33.699219 101.960938 35.632812 101.960938 37.625 C 103.027344 37.597656 104.089844 37.566406 105.15625 37.53125 C 105.460938 37.523438 105.761719 37.515625 106.074219 37.507812 C 106.363281 37.496094 106.65625 37.488281 106.953125 37.476562 C 107.222656 37.46875 107.488281 37.460938 107.765625 37.449219 C 108.546875 37.375 108.546875 37.375 109.042969 36.390625 C 109.347656 36.390625 109.65625 36.390625 109.96875 36.390625 C 109.96875 38.328125 109.96875 40.261719 109.96875 42.253906 C 109.664062 42.253906 109.359375 42.253906 109.042969 42.253906 C 108.839844 41.945312 108.636719 41.640625 108.429688 41.328125 C 107.746094 41.171875 107.746094 41.171875 106.953125 41.167969 C 106.5625 41.152344 106.5625 41.152344 106.160156 41.136719 C 105.828125 41.128906 105.496094 41.121094 105.15625 41.113281 C 104.101562 41.082031 103.046875 41.050781 101.960938 41.019531 C 101.960938 43.15625 101.960938 45.292969 101.960938 47.496094 C 107.296875 47.34375 107.296875 47.34375 112.742188 47.1875 C 112.84375 46.882812 112.945312 46.578125 113.050781 46.261719 C 113.253906 46.261719 113.457031 46.261719 113.664062 46.261719 C 113.664062 48.09375 113.664062 49.925781 113.664062 51.8125 C 113.359375 51.8125 113.054688 51.8125 112.742188 51.8125 C 112.742188 51.609375 112.742188 51.40625 112.742188 51.195312 C 107.457031 51.09375 102.167969 50.992188 96.722656 50.886719 C 96.722656 50.683594 96.722656 50.480469 96.722656 50.269531 C 96.925781 50.269531 97.128906 50.269531 97.339844 50.269531 C 97.355469 47.597656 97.363281 44.925781 97.371094 42.253906 C 97.375 41.011719 97.378906 39.769531 97.386719 38.527344 C 97.390625 37.332031 97.394531 36.132812 97.398438 34.933594 C 97.398438 34.480469 97.402344 34.023438 97.40625 33.566406 C 97.410156 32.925781 97.410156 32.285156 97.410156 31.644531 C 97.410156 31.28125 97.410156 30.914062 97.414062 30.539062 C 97.34375 29.640625 97.191406 29.132812 96.722656 28.375 C 96.917969 28.371094 97.113281 28.367188 97.316406 28.367188 C 99.34375 28.339844 101.371094 28.308594 103.402344 28.277344 C 104.160156 28.265625 104.917969 28.253906 105.675781 28.242188 C 106.761719 28.230469 107.847656 28.210938 108.9375 28.191406 C 109.277344 28.191406 109.617188 28.1875 109.96875 28.183594 C 110.28125 28.175781 110.597656 28.171875 110.921875 28.164062 C 111.199219 28.160156 111.476562 28.15625 111.761719 28.152344 C 112.496094 28.125 112.496094 28.125 113.050781 27.449219 Z M 113.050781 27.449219 "/>
<path style=" stroke:none;fill-rule:nonzero;fill:rgb(23.137255%,20.784314%,20%);fill-opacity:1;" d="M 82.246094 13.878906 C 83.972656 13.878906 85.703125 13.878906 87.480469 13.878906 C 87.480469 25.480469 87.480469 37.082031 87.480469 49.039062 C 89.515625 49.039062 91.546875 49.039062 93.644531 49.039062 C 93.644531 49.851562 93.644531 50.664062 93.644531 51.503906 C 89.882812 51.503906 86.121094 51.503906 82.246094 51.503906 C 82.246094 39.089844 82.246094 26.671875 82.246094 13.878906 Z M 82.246094 13.878906 "/>
<path style=" stroke:none;fill-rule:nonzero;fill:rgb(20.784314%,18.039216%,17.254902%);fill-opacity:1;" d="M 74.238281 27.449219 C 74.441406 27.449219 74.644531 27.449219 74.851562 27.449219 C 74.851562 29.382812 74.851562 31.316406 74.851562 33.308594 C 74.648438 33.308594 74.445312 33.308594 74.238281 33.308594 C 74.085938 32.699219 74.085938 32.699219 73.929688 32.074219 C 68.59375 31.921875 68.59375 31.921875 63.148438 31.765625 C 63.148438 33.699219 63.148438 35.632812 63.148438 37.625 C 65.484375 37.523438 67.824219 37.421875 70.230469 37.316406 C 70.382812 36.859375 70.382812 36.859375 70.539062 36.390625 C 70.742188 36.390625 70.945312 36.390625 71.15625 36.390625 C 71.15625 38.328125 71.15625 40.261719 71.15625 42.253906 C 70.851562 42.152344 70.546875 42.046875 70.230469 41.945312 C 70.230469 41.742188 70.230469 41.535156 70.230469 41.328125 C 67.894531 41.226562 65.554688 41.125 63.148438 41.019531 C 63.148438 43.15625 63.148438 45.292969 63.148438 47.496094 C 64.578125 47.472656 66.007812 47.445312 67.441406 47.414062 C 67.925781 47.402344 68.414062 47.394531 68.898438 47.386719 C 69.597656 47.378906 70.300781 47.363281 71 47.34375 C 71.214844 47.34375 71.433594 47.339844 71.65625 47.339844 C 72.867188 47.3125 72.867188 47.3125 73.878906 46.714844 C 74 46.566406 74.117188 46.414062 74.238281 46.261719 C 74.441406 46.261719 74.644531 46.261719 74.851562 46.261719 C 74.851562 48.09375 74.851562 49.925781 74.851562 51.8125 C 74.445312 51.609375 74.039062 51.40625 73.621094 51.195312 C 72.863281 51.097656 72.863281 51.097656 72.039062 51.097656 C 71.722656 51.09375 71.410156 51.085938 71.085938 51.078125 C 70.75 51.074219 70.410156 51.070312 70.0625 51.070312 C 69.714844 51.0625 69.371094 51.054688 69.011719 51.050781 C 67.90625 51.03125 66.796875 51.019531 65.6875 51.003906 C 64.9375 50.992188 64.1875 50.980469 63.433594 50.96875 C 61.59375 50.9375 59.753906 50.910156 57.910156 50.886719 C 57.910156 50.683594 57.910156 50.480469 57.910156 50.269531 C 58.113281 50.269531 58.316406 50.269531 58.527344 50.269531 C 58.542969 47.597656 58.550781 44.925781 58.558594 42.253906 C 58.5625 41.011719 58.566406 39.769531 58.574219 38.527344 C 58.578125 37.332031 58.582031 36.132812 58.585938 34.933594 C 58.585938 34.480469 58.589844 34.023438 58.59375 33.566406 C 58.597656 32.925781 58.597656 32.285156 58.597656 31.644531 C 58.597656 31.28125 58.597656 30.914062 58.601562 30.539062 C 58.53125 29.640625 58.378906 29.132812 57.910156 28.375 C 58.105469 28.371094 58.300781 28.367188 58.503906 28.367188 C 60.53125 28.339844 62.558594 28.308594 64.589844 28.277344 C 65.347656 28.265625 66.105469 28.253906 66.863281 28.242188 C 67.949219 28.230469 69.035156 28.210938 70.125 28.191406 C 70.464844 28.191406 70.804688 28.1875 71.15625 28.183594 C 71.46875 28.175781 71.785156 28.171875 72.109375 28.164062 C 72.386719 28.160156 72.664062 28.15625 72.949219 28.152344 C 73.683594 28.125 73.683594 28.125 74.238281 27.449219 Z M 74.238281 27.449219 "/>
<path style=" stroke:none;fill-rule:nonzero;fill:rgb(21.568627%,19.215686%,18.431373%);fill-opacity:1;" d="M 186.867188 29.328125 C 187.757812 29.667969 188.496094 29.652344 189.441406 29.609375 C 188.96875 31.410156 188.070312 33.039062 186.976562 34.542969 C 186.773438 34.542969 186.570312 34.542969 186.363281 34.542969 C 186.234375 34.308594 186.109375 34.070312 185.976562 33.828125 C 185.230469 32.679688 184.324219 32.304688 183.039062 31.902344 C 182.144531 31.722656 181.285156 31.703125 180.375 31.6875 C 180.03125 31.679688 179.6875 31.671875 179.335938 31.664062 C 177.953125 31.808594 177.167969 32.335938 176.195312 33.308594 C 175.992188 34.363281 175.992188 34.363281 176.195312 35.46875 C 177.722656 36.792969 179.464844 37.15625 181.394531 37.625 C 186.957031 38.992188 186.957031 38.992188 188.34375 41.039062 C 188.492188 41.246094 188.636719 41.453125 188.785156 41.664062 C 189.644531 43.113281 189.617188 44.628906 189.441406 46.261719 C 188.785156 48.355469 187.625 49.433594 185.726562 50.484375 C 182.832031 51.777344 178.894531 51.605469 175.925781 50.617188 C 175.148438 50.320312 174.421875 50 173.6875 49.605469 C 172.898438 49.246094 172.390625 49.429688 171.574219 49.652344 C 171.472656 49.449219 171.371094 49.246094 171.269531 49.039062 C 171.460938 48.515625 171.460938 48.515625 171.777344 47.898438 C 171.945312 47.566406 171.945312 47.566406 172.117188 47.230469 C 172.238281 47 172.355469 46.769531 172.480469 46.53125 C 172.601562 46.300781 172.71875 46.066406 172.839844 45.828125 C 173.136719 45.25 173.433594 44.675781 173.730469 44.101562 C 174.035156 44.101562 174.34375 44.101562 174.65625 44.101562 C 174.734375 44.390625 174.808594 44.675781 174.886719 44.96875 C 175.308594 46.042969 175.519531 46.332031 176.503906 46.878906 C 178.035156 47.5 179.367188 47.597656 180.992188 47.589844 C 181.21875 47.597656 181.449219 47.601562 181.683594 47.605469 C 183.089844 47.609375 183.976562 47.460938 185.128906 46.570312 C 185.707031 45.808594 185.742188 45.371094 185.785156 44.410156 C 185.503906 43.402344 185.503906 43.402344 184.511719 42.832031 C 182.96875 42.152344 181.316406 41.84375 179.675781 41.480469 C 177.171875 40.914062 174.902344 40.160156 173.117188 38.242188 C 172.09375 36.355469 171.984375 34.449219 172.5 32.382812 C 173.460938 30.492188 174.871094 29.199219 176.832031 28.433594 C 180.144531 27.457031 183.722656 28.023438 186.867188 29.328125 Z M 186.867188 29.328125 "/>
<path style=" stroke:none;fill-rule:nonzero;fill:rgb(99.215686%,99.215686%,99.215686%);fill-opacity:1;" d="M 150.628906 32.074219 C 157.097656 32.074219 157.097656 32.074219 159.5625 33.308594 C 160.128906 33.914062 160.128906 33.914062 160.46875 34.523438 C 160.585938 34.722656 160.703125 34.921875 160.824219 35.128906 C 161.863281 37.53125 161.792969 41.015625 161.046875 43.503906 C 160.371094 45.15625 159.488281 46.4375 157.8125 47.148438 C 156.175781 47.496094 156.175781 47.496094 150.628906 47.496094 C 150.628906 42.40625 150.628906 37.316406 150.628906 32.074219 Z M 150.628906 32.074219 "/>
<path style=" stroke:none;fill-rule:nonzero;fill:rgb(21.568627%,18.431373%,18.039216%);fill-opacity:1;" d="M 145.085938 28.375 C 146.734375 28.351562 148.382812 28.335938 150.03125 28.324219 C 150.589844 28.320312 151.152344 28.3125 151.710938 28.304688 C 159.523438 28.195312 159.523438 28.195312 162.402344 30.597656 C 164.835938 33.042969 165.75 35.917969 165.820312 39.324219 C 165.730469 42.523438 165.367188 45.738281 163.027344 48.113281 C 162.683594 48.417969 162.683594 48.417969 162.335938 48.730469 C 161.710938 48.132812 161.28125 47.609375 160.792969 46.878906 C 160.910156 46.261719 160.910156 46.261719 161.101562 45.644531 C 161.101562 45.339844 161.101562 45.035156 161.101562 44.71875 C 160.796875 44.71875 160.492188 44.71875 160.179688 44.71875 C 160.332031 44.355469 160.484375 43.996094 160.640625 43.621094 C 161.523438 40.957031 161.53125 37.71875 160.480469 35.097656 C 159.640625 33.550781 158.710938 33.027344 157.097656 32.382812 C 154.964844 32.28125 152.828125 32.179688 150.628906 32.074219 C 150.628906 37.164062 150.628906 42.253906 150.628906 47.496094 C 150.527344 47.496094 150.425781 47.496094 150.320312 47.496094 C 150.320312 42.304688 150.320312 37.113281 150.320312 31.765625 C 151.746094 31.664062 153.167969 31.5625 154.632812 31.457031 C 154.835938 31.355469 155.039062 31.253906 155.25 31.148438 C 155.25 30.84375 155.25 30.539062 155.25 30.222656 C 155.867188 29.550781 155.867188 29.550781 156.480469 28.992188 C 155.195312 28.976562 153.90625 28.964844 152.617188 28.957031 C 152.179688 28.953125 151.742188 28.949219 151.304688 28.945312 C 150.675781 28.9375 150.042969 28.933594 149.414062 28.929688 C 149.035156 28.925781 148.65625 28.925781 148.265625 28.921875 C 147.269531 28.988281 146.59375 29.179688 145.699219 29.609375 C 145.496094 29.199219 145.292969 28.792969 145.085938 28.375 Z M 145.085938 28.375 "/>
<path style=" stroke:none;fill-rule:nonzero;fill:rgb(21.176471%,18.823529%,18.039216%);fill-opacity:1;" d="M 134.304688 39.476562 C 134.867188 39.652344 134.867188 39.652344 135.535156 40.09375 C 135.875 40.804688 136.132812 41.457031 136.375 42.203125 C 136.449219 42.410156 136.519531 42.617188 136.59375 42.832031 C 136.824219 43.5 137.046875 44.167969 137.269531 44.835938 C 137.496094 45.5 137.722656 46.164062 137.949219 46.832031 C 138.089844 47.246094 138.230469 47.65625 138.371094 48.074219 C 138.703125 49.0625 139.070312 49.949219 139.539062 50.886719 C 137.507812 50.886719 135.472656 50.886719 133.378906 50.886719 C 133.378906 50.683594 133.378906 50.480469 133.378906 50.269531 C 133.582031 50.269531 133.785156 50.269531 133.996094 50.269531 C 133.636719 48.453125 133.25 46.707031 132.457031 45.027344 C 131.675781 44.539062 131.675781 44.539062 130.914062 44.410156 C 131.050781 42.929688 131.339844 42.304688 132.457031 41.328125 C 132.558594 41.125 132.660156 40.921875 132.761719 40.710938 C 133.066406 40.710938 133.375 40.710938 133.6875 40.710938 C 133.890625 40.304688 134.09375 39.894531 134.304688 39.476562 Z M 134.304688 39.476562 "/>
<path style=" stroke:none;fill-rule:nonzero;fill:rgb(96.078431%,95.686275%,95.686275%);fill-opacity:1;" d="M 128.757812 31.765625 C 129.570312 32.578125 129.710938 33.441406 129.984375 34.523438 C 130.039062 34.734375 130.09375 34.945312 130.148438 35.164062 C 130.265625 35.605469 130.378906 36.050781 130.492188 36.496094 C 130.664062 37.183594 130.84375 37.863281 131.019531 38.546875 C 131.132812 38.980469 131.242188 39.414062 131.351562 39.84375 C 131.40625 40.050781 131.460938 40.253906 131.515625 40.46875 C 131.636719 40.957031 131.738281 41.449219 131.839844 41.945312 C 131.53125 42.253906 131.53125 42.253906 130.988281 42.289062 C 130.757812 42.285156 130.527344 42.285156 130.289062 42.28125 C 130.039062 42.28125 129.789062 42.28125 129.535156 42.28125 C 129.269531 42.277344 129.007812 42.273438 128.738281 42.273438 C 128.476562 42.269531 128.214844 42.269531 127.941406 42.265625 C 127.289062 42.265625 126.636719 42.257812 125.988281 42.253906 C 126.171875 40.117188 126.730469 38.183594 127.371094 36.140625 C 127.519531 35.664062 127.519531 35.664062 127.671875 35.175781 C 128.027344 34.035156 128.382812 32.898438 128.757812 31.765625 Z M 128.757812 31.765625 "/>
<path style=" stroke:none;fill-rule:nonzero;fill:rgb(29.019608%,26.666667%,26.27451%);fill-opacity:1;" d="M 145.085938 28.375 C 146.734375 28.351562 148.382812 28.335938 150.03125 28.324219 C 150.589844 28.320312 151.152344 28.3125 151.710938 28.304688 C 159.871094 28.1875 159.871094 28.1875 162.949219 31.148438 C 163.101562 31.453125 163.101562 31.453125 163.257812 31.765625 C 162.546875 31.5625 161.835938 31.359375 161.101562 31.148438 C 161.253906 31.300781 161.253906 31.300781 161.410156 31.457031 C 160.785156 32.179688 160.332031 32.636719 159.429688 32.960938 C 158.636719 33 158.636719 33 157.097656 32.382812 C 154.964844 32.28125 152.828125 32.179688 150.628906 32.074219 C 150.628906 37.164062 150.628906 42.253906 150.628906 47.496094 C 150.527344 47.496094 150.425781 47.496094 150.320312 47.496094 C 150.320312 42.304688 150.320312 37.113281 150.320312 31.765625 C 151.746094 31.664062 153.167969 31.5625 154.632812 31.457031 C 154.835938 31.355469 155.039062 31.253906 155.25 31.148438 C 155.25 30.84375 155.25 30.539062 155.25 30.222656 C 155.867188 29.550781 155.867188 29.550781 156.480469 28.992188 C 155.195312 28.976562 153.90625 28.964844 152.617188 28.957031 C 152.179688 28.953125 151.742188 28.949219 151.304688 28.945312 C 150.675781 28.9375 150.042969 28.933594 149.414062 28.929688 C 149.035156 28.925781 148.65625 28.925781 148.265625 28.921875 C 147.269531 28.988281 146.59375 29.179688 145.699219 29.609375 C 145.496094 29.199219 145.292969 28.792969 145.085938 28.375 Z M 145.085938 28.375 "/>
<path style=" stroke:none;fill-rule:nonzero;fill:rgb(85.490196%,28.627451%,28.627451%);fill-opacity:1;" d="M 235.648438 16.652344 C 237.777344 18.648438 238.675781 21.578125 238.800781 24.4375 C 238.933594 30.496094 238.5 38.894531 235.03125 44.101562 C 235.007812 43.667969 234.988281 43.230469 234.972656 42.792969 C 234.960938 42.546875 234.953125 42.304688 234.941406 42.054688 C 235.03125 41.328125 235.03125 41.328125 235.464844 40.765625 C 236.148438 39.828125 236.273438 38.84375 236.457031 37.722656 C 236.496094 37.503906 236.535156 37.285156 236.574219 37.058594 C 236.777344 35.871094 236.949219 34.683594 237.070312 33.480469 C 237.1875 32.382812 237.1875 32.382812 237.496094 32.074219 C 237.980469 28.929688 237.832031 25.6875 237.804688 22.515625 C 237.601562 22.414062 237.398438 22.308594 237.1875 22.207031 C 237.1875 21.390625 237.1875 20.578125 237.1875 19.738281 C 236.945312 19.667969 236.703125 19.597656 236.457031 19.527344 C 235.648438 19.121094 235.648438 19.121094 235.242188 18.3125 C 235.171875 18.070312 235.101562 17.828125 235.03125 17.578125 C 234.625 17.578125 234.21875 17.578125 233.800781 17.578125 C 233.714844 17.382812 233.632812 17.183594 233.550781 16.980469 C 233.21875 16.242188 233.21875 16.242188 232.257812 16.039062 C 230.089844 15.945312 227.925781 15.9375 225.789062 16.347656 C 225.789062 16.550781 225.789062 16.753906 225.789062 16.960938 C 225.078125 17.0625 224.367188 17.167969 223.632812 17.269531 C 223.53125 17.78125 223.429688 18.289062 223.324219 18.8125 C 222.714844 18.8125 222.105469 18.8125 221.476562 18.8125 C 224.9375 14.902344 231.25 13.492188 235.648438 16.652344 Z M 235.648438 16.652344 "/>
<path style=" stroke:none;fill-rule:nonzero;fill:rgb(25.490196%,23.529412%,22.745098%);fill-opacity:1;" d="M 173.730469 44.101562 C 174.035156 44.101562 174.34375 44.101562 174.65625 44.101562 C 174.734375 44.390625 174.808594 44.675781 174.886719 44.96875 C 175.308594 46.042969 175.519531 46.332031 176.503906 46.878906 C 178.027344 47.496094 179.351562 47.597656 180.972656 47.589844 C 181.308594 47.597656 181.308594 47.597656 181.65625 47.605469 C 183.144531 47.609375 184.128906 47.355469 185.4375 46.570312 C 185.335938 46.976562 185.234375 47.382812 185.128906 47.804688 C 183.667969 48.25 182.152344 48.210938 180.636719 48.273438 C 179.535156 48.425781 178.917969 48.671875 178.042969 49.347656 C 178.042969 49.550781 178.042969 49.753906 178.042969 49.960938 C 178.246094 50.0625 178.453125 50.167969 178.660156 50.269531 C 178.558594 50.371094 178.457031 50.472656 178.351562 50.578125 C 178.65625 50.78125 178.960938 50.988281 179.277344 51.195312 C 177.289062 51.082031 175.785156 50.496094 173.988281 49.640625 C 173.023438 49.316406 172.535156 49.363281 171.574219 49.652344 C 171.472656 49.449219 171.371094 49.246094 171.269531 49.039062 C 171.460938 48.515625 171.460938 48.515625 171.777344 47.898438 C 171.890625 47.675781 172 47.457031 172.117188 47.230469 C 172.238281 47 172.355469 46.769531 172.480469 46.53125 C 172.601562 46.300781 172.71875 46.066406 172.839844 45.828125 C 173.136719 45.25 173.433594 44.675781 173.730469 44.101562 Z M 173.730469 44.101562 "/>
<path style=" stroke:none;fill-rule:nonzero;fill:rgb(87.843137%,27.843137%,27.45098%);fill-opacity:1;" d="M 248.277344 17.886719 C 248.480469 17.886719 248.683594 17.886719 248.894531 17.886719 C 248.570312 18.640625 248.300781 19.101562 247.679688 19.652344 C 246.886719 20.53125 246.667969 21.300781 246.351562 22.4375 C 246.195312 22.976562 246.195312 22.976562 246.039062 23.53125 C 245.964844 23.804688 245.890625 24.082031 245.8125 24.363281 C 245.304688 24.363281 244.796875 24.363281 244.273438 24.363281 C 244.285156 24.644531 244.296875 24.925781 244.3125 25.210938 C 244.273438 26.183594 244.1875 26.652344 243.65625 27.449219 C 243.453125 27.550781 243.25 27.652344 243.039062 27.757812 C 242.746094 28.769531 242.699219 29.207031 243.039062 30.222656 C 242.738281 30.742188 242.425781 31.253906 242.117188 31.765625 C 241.863281 32.441406 241.644531 33.125 241.425781 33.8125 C 241.078125 34.894531 240.671875 35.949219 240.269531 37.007812 C 239.0625 33.84375 242.058594 28.222656 243.347656 25.289062 C 244.59375 22.546875 246.15625 20.042969 248.277344 17.886719 Z M 248.277344 17.886719 "/>
<path style=" stroke:none;fill-rule:nonzero;fill:rgb(84.705882%,30.588235%,30.588235%);fill-opacity:1;" d="M 256.902344 20.046875 C 257.207031 20.046875 257.511719 20.046875 257.824219 20.046875 C 257.964844 20.398438 258.105469 20.746094 258.25 21.105469 C 258.617188 22.21875 258.617188 22.21875 259.367188 22.515625 C 259.375 23.777344 259.378906 25.039062 259.382812 26.300781 C 259.382812 26.730469 259.386719 27.160156 259.390625 27.589844 C 259.394531 28.207031 259.394531 28.824219 259.394531 29.441406 C 259.398438 29.8125 259.398438 30.183594 259.402344 30.566406 C 259.367188 31.457031 259.367188 31.457031 259.058594 32.074219 C 259.011719 32.542969 258.972656 33.011719 258.941406 33.480469 C 258.796875 35.078125 258.375 36.4375 257.824219 37.933594 C 257.59375 38.679688 257.359375 39.425781 257.132812 40.171875 C 256.902344 40.710938 256.902344 40.710938 256.285156 41.019531 C 256.476562 39.484375 256.789062 38.023438 257.191406 36.527344 C 258.566406 31.140625 259.550781 25.175781 256.902344 20.046875 Z M 256.902344 20.046875 "/>
<path style=" stroke:none;fill-rule:nonzero;fill:rgb(86.27451%,32.156863%,32.941176%);fill-opacity:1;" d="M 203.917969 36.390625 C 204.457031 37.46875 203.878906 38.660156 203.59375 39.78125 C 203.527344 40.058594 203.457031 40.332031 203.386719 40.617188 C 203.167969 41.503906 202.949219 42.390625 202.726562 43.273438 C 202.507812 44.15625 202.289062 45.039062 202.070312 45.917969 C 201.933594 46.46875 201.796875 47.019531 201.660156 47.566406 C 201.359375 48.773438 201.066406 49.972656 200.839844 51.195312 C 201.207031 51.175781 201.578125 51.15625 201.957031 51.136719 C 203.449219 51.144531 204.519531 51.496094 205.609375 52.574219 C 206.691406 53.816406 206.691406 53.816406 206.691406 54.589844 C 206.386719 54.589844 206.082031 54.589844 205.769531 54.589844 C 205.691406 54.351562 205.617188 54.117188 205.535156 53.875 C 205.097656 52.929688 204.800781 52.652344 203.917969 52.121094 C 203.054688 51.945312 203.054688 51.945312 202.148438 51.910156 C 201.695312 51.878906 201.695312 51.878906 201.230469 51.847656 C 201 51.835938 200.769531 51.824219 200.53125 51.8125 C 199.925781 50.507812 199.941406 49.855469 200.351562 48.460938 C 200.632812 47.433594 200.726562 46.398438 200.839844 45.335938 C 201.042969 45.335938 201.246094 45.335938 201.457031 45.335938 C 201.488281 44.972656 201.519531 44.609375 201.550781 44.238281 C 201.664062 43.292969 201.835938 42.707031 202.226562 41.808594 C 202.628906 40.847656 202.761719 40.289062 202.839844 39.285156 C 202.9375 38.109375 203.203125 37.355469 203.917969 36.390625 Z M 203.917969 36.390625 "/>
<path style=" stroke:none;fill-rule:nonzero;fill:rgb(84.705882%,29.019608%,28.627451%);fill-opacity:1;" d="M 220.246094 33 C 220.59375 34.042969 220.507812 34.722656 220.246094 35.78125 C 219.460938 39.179688 218.855469 42.453125 218.839844 45.953125 C 218.835938 46.253906 218.832031 46.550781 218.828125 46.859375 C 218.855469 48.796875 219.179688 50.472656 220.246094 52.121094 C 221.035156 52.628906 221.035156 52.628906 221.785156 52.738281 C 221.785156 52.839844 221.785156 52.941406 221.785156 53.046875 C 221.074219 53.046875 220.363281 53.046875 219.628906 53.046875 C 219.429688 52.566406 219.230469 52.082031 219.03125 51.601562 C 218.921875 51.332031 218.8125 51.0625 218.695312 50.789062 C 218.195312 49.40625 218.050781 48.136719 218.046875 46.671875 C 218.046875 46.339844 218.046875 46.007812 218.046875 45.664062 C 218.046875 45.320312 218.050781 44.976562 218.050781 44.625 C 218.050781 44.28125 218.046875 43.941406 218.046875 43.59375 C 218.054688 38.585938 218.054688 38.585938 218.707031 37.933594 C 218.738281 37.628906 218.769531 37.324219 218.800781 37.007812 C 218.984375 35.550781 219.609375 34.308594 220.246094 33 Z M 220.246094 33 "/>
<path style=" stroke:none;fill-rule:nonzero;fill:rgb(22.352941%,20.784314%,20%);fill-opacity:1;" d="M 12.9375 45.335938 C 13.613281 45.652344 14.160156 45.945312 14.726562 46.433594 C 15.558594 46.980469 16.035156 46.976562 17.019531 46.9375 C 17.292969 46.929688 17.570312 46.917969 17.851562 46.910156 C 18.164062 46.894531 18.164062 46.894531 18.480469 46.878906 C 18.175781 47.183594 17.871094 47.488281 17.558594 47.804688 C 17.253906 47.703125 16.949219 47.601562 16.632812 47.496094 C 16.632812 47.800781 16.632812 48.105469 16.632812 48.421875 C 16.226562 48.421875 15.820312 48.421875 15.402344 48.421875 C 15.300781 48.625 15.199219 48.828125 15.09375 49.039062 C 14.992188 48.730469 14.890625 48.425781 14.785156 48.113281 C 14.378906 48.113281 13.972656 48.113281 13.554688 48.113281 C 13.757812 48.214844 13.960938 48.316406 14.167969 48.421875 C 14.167969 48.726562 14.167969 49.03125 14.167969 49.347656 C 14.578125 49.347656 14.984375 49.347656 15.402344 49.347656 C 15.402344 49.550781 15.402344 49.753906 15.402344 49.960938 C 15.199219 49.960938 14.996094 49.960938 14.785156 49.960938 C 14.683594 50.167969 14.582031 50.371094 14.476562 50.578125 C 14.078125 50.242188 13.679688 49.898438 13.285156 49.558594 C 13.0625 49.367188 12.839844 49.179688 12.613281 48.984375 C 12.011719 48.421875 12.011719 48.421875 11.398438 47.496094 C 11.398438 47.191406 11.398438 46.882812 11.398438 46.570312 C 12.167969 45.894531 12.167969 45.894531 12.9375 45.335938 Z M 12.9375 45.335938 "/>
<path style=" stroke:none;fill-rule:nonzero;fill:rgb(85.882353%,28.627451%,28.235294%);fill-opacity:1;" d="M 195.910156 46.570312 C 196.011719 46.570312 196.113281 46.570312 196.21875 46.570312 C 196.226562 47.027344 196.234375 47.484375 196.238281 47.9375 C 196.242188 48.191406 196.246094 48.445312 196.25 48.707031 C 196.21875 49.347656 196.21875 49.347656 195.910156 49.652344 C 195.824219 50.359375 195.773438 51.066406 195.71875 51.773438 C 195.601562 52.429688 195.601562 52.429688 194.988281 53.046875 C 194.265625 53.144531 194.265625 53.144531 193.375 53.175781 C 193.058594 53.1875 192.742188 53.199219 192.414062 53.210938 C 192.082031 53.21875 191.75 53.230469 191.40625 53.238281 C 191.070312 53.25 190.734375 53.261719 190.390625 53.277344 C 189.5625 53.304688 188.730469 53.332031 187.902344 53.355469 C 187.972656 53.523438 188.042969 53.691406 188.113281 53.863281 C 188.203125 54.082031 188.292969 54.304688 188.382812 54.53125 C 188.472656 54.75 188.5625 54.96875 188.652344 55.191406 C 188.824219 55.824219 188.824219 55.824219 188.519531 56.746094 C 188.308594 56.378906 188.105469 56.003906 187.902344 55.628906 C 187.789062 55.421875 187.671875 55.214844 187.554688 55 C 187.285156 54.28125 187.285156 54.28125 187.285156 52.429688 C 189.726562 52.328125 192.164062 52.226562 194.679688 52.121094 C 194.882812 51.003906 195.085938 49.882812 195.292969 48.730469 C 195.488281 48.007812 195.6875 47.285156 195.910156 46.570312 Z M 195.910156 46.570312 "/>
<path style=" stroke:none;fill-rule:nonzero;fill:rgb(85.882353%,29.411765%,30.588235%);fill-opacity:1;" d="M 255.976562 41.019531 C 256.382812 42.148438 256.179688 42.894531 255.84375 44.027344 C 255.710938 44.480469 255.710938 44.480469 255.574219 44.945312 C 255.503906 45.175781 255.433594 45.40625 255.363281 45.644531 C 255.160156 45.644531 254.953125 45.644531 254.746094 45.644531 C 254.847656 46.152344 254.949219 46.664062 255.054688 47.1875 C 254.445312 47.492188 254.445312 47.492188 253.820312 47.804688 C 253.820312 48.109375 253.820312 48.414062 253.820312 48.730469 C 253.617188 48.730469 253.414062 48.730469 253.207031 48.730469 C 253.308594 49.035156 253.410156 49.339844 253.511719 49.652344 C 253.410156 49.960938 253.308594 50.265625 253.207031 50.578125 C 253.003906 50.578125 252.796875 50.578125 252.589844 50.578125 C 252.4375 51.039062 252.4375 51.039062 252.28125 51.503906 C 251.46875 51.503906 250.65625 51.503906 249.816406 51.503906 C 249.816406 51.707031 249.816406 51.910156 249.816406 52.121094 C 249.410156 52.019531 249.003906 51.917969 248.585938 51.8125 C 248.929688 51.554688 249.277344 51.296875 249.625 51.042969 C 249.816406 50.898438 250.011719 50.753906 250.210938 50.609375 C 250.742188 50.269531 250.742188 50.269531 251.355469 50.269531 C 251.441406 50.09375 251.527344 49.914062 251.613281 49.730469 C 251.96875 49.046875 252.371094 48.464844 252.820312 47.84375 C 254.226562 45.765625 255.1875 43.390625 255.976562 41.019531 Z M 255.976562 41.019531 "/>
<path style=" stroke:none;fill-rule:nonzero;fill:rgb(85.882353%,30.588235%,29.019608%);fill-opacity:1;" d="M 199.914062 30.53125 C 200.015625 30.53125 200.117188 30.53125 200.222656 30.53125 C 200.023438 33.121094 199.683594 35.675781 199.300781 38.242188 C 199.199219 38.242188 199.097656 38.242188 198.992188 38.242188 C 198.890625 39.058594 198.789062 39.871094 198.683594 40.710938 C 198.480469 40.710938 198.277344 40.710938 198.066406 40.710938 C 198.066406 41.421875 198.066406 42.136719 198.066406 42.871094 C 197.863281 42.871094 197.660156 42.871094 197.449219 42.871094 C 197.449219 43.378906 197.449219 43.886719 197.449219 44.410156 C 197.246094 44.410156 197.042969 44.410156 196.835938 44.410156 C 196.835938 45.023438 196.835938 45.632812 196.835938 46.261719 C 196.632812 46.261719 196.429688 46.261719 196.21875 46.261719 C 196.414062 44.335938 196.808594 42.523438 197.296875 40.652344 C 197.410156 40.214844 197.410156 40.214844 197.523438 39.769531 C 197.761719 38.851562 198 37.929688 198.242188 37.007812 C 198.402344 36.382812 198.5625 35.753906 198.726562 35.125 C 199.121094 33.59375 199.515625 32.0625 199.914062 30.53125 Z M 199.914062 30.53125 "/>
<path style=" stroke:none;fill-rule:nonzero;fill:rgb(84.705882%,29.411765%,29.019608%);fill-opacity:1;" d="M 230.101562 20.355469 C 230.304688 20.355469 230.507812 20.355469 230.71875 20.355469 C 230.96875 20.847656 231.21875 21.34375 231.46875 21.839844 C 231.609375 22.113281 231.75 22.390625 231.890625 22.675781 C 232.710938 24.382812 232.625 25.914062 232.625 27.777344 C 232.628906 28.085938 232.632812 28.394531 232.636719 28.710938 C 232.640625 30.726562 232.429688 32.582031 231.949219 34.542969 C 231.746094 34.542969 231.542969 34.542969 231.335938 34.542969 C 231.320312 34.730469 231.304688 34.921875 231.289062 35.117188 C 231.265625 35.367188 231.242188 35.617188 231.21875 35.871094 C 231.1875 36.242188 231.1875 36.242188 231.15625 36.621094 C 231.027344 37.316406 231.027344 37.316406 230.410156 38.242188 C 230.578125 37.035156 230.757812 35.832031 230.949219 34.628906 C 232.097656 27.332031 232.097656 27.332031 230.101562 20.355469 Z M 230.101562 20.355469 "/>
<path style=" stroke:none;fill-rule:nonzero;fill:rgb(81.960784%,30.196078%,30.588235%);fill-opacity:1;" d="M 230.71875 51.195312 C 231.023438 51.296875 231.328125 51.398438 231.644531 51.503906 C 226.550781 57.355469 226.550781 57.355469 222.714844 57.734375 C 220.699219 57.84375 218.714844 57.953125 216.855469 57.054688 C 217.714844 56.808594 218.445312 56.71875 219.335938 56.75 C 219.570312 56.753906 219.804688 56.761719 220.046875 56.765625 C 220.535156 56.777344 221.019531 56.796875 221.507812 56.8125 C 223.25 56.847656 224.511719 56.558594 226.097656 55.824219 C 226.199219 55.617188 226.300781 55.414062 226.40625 55.207031 C 226.8125 55.207031 227.21875 55.207031 227.636719 55.207031 C 227.738281 54.898438 227.839844 54.59375 227.945312 54.28125 C 228.25 54.03125 228.554688 53.785156 228.871094 53.527344 C 229.773438 52.757812 229.945312 52.601562 230.101562 51.503906 C 230.304688 51.402344 230.507812 51.300781 230.71875 51.195312 Z M 230.71875 51.195312 "/>
<path style=" stroke:none;fill-rule:nonzero;fill:rgb(83.529412%,29.411765%,29.803922%);fill-opacity:1;" d="M 200.222656 24.980469 C 200.425781 25.082031 200.628906 25.183594 200.839844 25.289062 C 198.90625 29.363281 198.90625 29.363281 197.683594 30.167969 C 196.140625 30.65625 194.738281 30.636719 193.136719 30.53125 C 192.863281 29.609375 192.769531 29.140625 193.136719 28.234375 C 193.355469 27.875 193.355469 27.875 193.582031 27.507812 C 193.800781 27.140625 193.800781 27.140625 194.023438 26.769531 C 194.136719 26.585938 194.253906 26.402344 194.371094 26.214844 C 194.472656 26.214844 194.574219 26.214844 194.679688 26.214844 C 194.578125 27.335938 194.476562 28.453125 194.371094 29.609375 C 195.183594 29.710938 195.996094 29.8125 196.835938 29.914062 C 196.835938 29.710938 196.835938 29.507812 196.835938 29.300781 C 197.140625 29.300781 197.445312 29.300781 197.757812 29.300781 C 197.757812 29.09375 197.757812 28.890625 197.757812 28.683594 C 198.0625 28.683594 198.367188 28.683594 198.683594 28.683594 C 198.722656 28.460938 198.757812 28.238281 198.796875 28.007812 C 198.988281 27.152344 199.261719 26.402344 199.605469 25.597656 C 199.808594 25.597656 200.015625 25.597656 200.222656 25.597656 C 200.222656 25.394531 200.222656 25.191406 200.222656 24.980469 Z M 200.222656 24.980469 "/>
<path style=" stroke:none;fill-rule:nonzero;fill:rgb(81.960784%,32.54902%,32.54902%);fill-opacity:1;" d="M 233.492188 15.730469 C 233.117188 15.746094 232.742188 15.765625 232.355469 15.785156 C 231.855469 15.8125 231.355469 15.835938 230.855469 15.863281 C 230.605469 15.875 230.359375 15.886719 230.105469 15.902344 C 228.652344 15.976562 227.230469 16.117188 225.789062 16.347656 C 225.789062 16.550781 225.789062 16.753906 225.789062 16.960938 C 225.078125 17.0625 224.367188 17.167969 223.632812 17.269531 C 223.53125 17.78125 223.429688 18.289062 223.324219 18.8125 C 222.714844 18.8125 222.105469 18.8125 221.476562 18.8125 C 224.070312 15.882812 229.867188 13.308594 233.492188 15.730469 Z M 233.492188 15.730469 "/>
<path style=" stroke:none;fill-rule:nonzero;fill:rgb(81.176471%,34.509804%,35.294118%);fill-opacity:1;" d="M 261.523438 15.421875 C 262.0625 15.914062 262.0625 15.914062 262.445312 16.347656 C 261.40625 16.175781 260.882812 16.019531 259.980469 15.421875 C 259.351562 15.332031 259.351562 15.332031 258.664062 15.347656 C 258.410156 15.351562 258.15625 15.351562 257.894531 15.351562 C 257.5 15.355469 257.5 15.355469 257.09375 15.363281 C 256.703125 15.363281 256.703125 15.363281 256.300781 15.363281 C 255.027344 15.371094 253.832031 15.410156 252.589844 15.730469 C 252.589844 15.933594 252.589844 16.136719 252.589844 16.347656 C 252.148438 16.554688 251.703125 16.757812 251.261719 16.960938 C 250.890625 17.132812 250.890625 17.132812 250.511719 17.308594 C 249.816406 17.578125 249.816406 17.578125 248.894531 17.578125 C 252.488281 14.691406 257.125 13.191406 261.523438 15.421875 Z M 261.523438 15.421875 "/>
<path style=" stroke:none;fill-rule:nonzero;fill:rgb(79.607843%,34.509804%,33.333333%);fill-opacity:1;" d="M 245.503906 39.476562 C 245.605469 39.476562 245.707031 39.476562 245.8125 39.476562 C 245.808594 39.734375 245.804688 39.988281 245.800781 40.253906 C 245.792969 41.21875 245.785156 42.179688 245.777344 43.144531 C 245.773438 43.761719 245.765625 44.378906 245.757812 44.996094 C 245.746094 47.167969 245.84375 49.101562 246.429688 51.195312 C 245.542969 50.394531 245.085938 49.910156 244.886719 48.730469 C 244.863281 48.105469 244.855469 47.480469 244.859375 46.855469 C 244.859375 46.496094 244.859375 46.140625 244.859375 45.769531 C 244.863281 45.398438 244.867188 45.027344 244.871094 44.640625 C 244.871094 44.265625 244.871094 43.890625 244.875 43.5 C 244.878906 42.570312 244.882812 41.640625 244.886719 40.710938 C 245.089844 40.710938 245.296875 40.710938 245.503906 40.710938 C 245.503906 40.304688 245.503906 39.894531 245.503906 39.476562 Z M 245.503906 39.476562 "/>
<path style=" stroke:none;fill-rule:nonzero;fill:rgb(84.705882%,32.156863%,31.764706%);fill-opacity:1;" d="M 241.808594 54.898438 C 242.5 54.820312 242.5 54.820312 243.347656 54.898438 C 243.496094 55.097656 243.648438 55.296875 243.800781 55.503906 C 245.0625 56.519531 246.472656 56.339844 248.046875 56.363281 C 248.363281 56.371094 248.679688 56.378906 249.007812 56.390625 C 249.792969 56.410156 250.574219 56.429688 251.355469 56.4375 C 249.6875 57.554688 247.488281 57.523438 245.535156 57.230469 C 243.882812 56.789062 242.882812 56.226562 241.808594 54.898438 Z M 241.808594 54.898438 "/>
<path style=" stroke:none;fill-rule:nonzero;fill:rgb(82.352941%,29.803922%,30.588235%);fill-opacity:1;" d="M 203.917969 36.390625 C 204.550781 37.660156 203.699219 39.40625 203.363281 40.726562 C 203.207031 41.34375 203.058594 41.960938 202.90625 42.578125 C 202.808594 42.964844 202.714844 43.351562 202.613281 43.746094 C 202.523438 44.105469 202.4375 44.460938 202.34375 44.828125 C 202.070312 45.644531 202.070312 45.644531 201.457031 45.953125 C 201.253906 46.886719 201.253906 46.886719 201.148438 47.804688 C 201.046875 47.804688 200.945312 47.804688 200.839844 47.804688 C 200.839844 46.988281 200.839844 46.175781 200.839844 45.335938 C 201.042969 45.335938 201.246094 45.335938 201.457031 45.335938 C 201.488281 44.972656 201.519531 44.609375 201.550781 44.238281 C 201.664062 43.292969 201.835938 42.707031 202.226562 41.808594 C 202.628906 40.847656 202.761719 40.289062 202.839844 39.285156 C 202.9375 38.109375 203.203125 37.355469 203.917969 36.390625 Z M 203.917969 36.390625 "/>
<path style=" stroke:none;fill-rule:nonzero;fill:rgb(87.843137%,27.843137%,28.627451%);fill-opacity:1;" d="M 252.28125 20.664062 C 252.6875 20.765625 253.09375 20.867188 253.511719 20.972656 C 253.382812 21.101562 253.253906 21.226562 253.117188 21.359375 C 251.3125 23.257812 250.289062 25.402344 249.199219 27.757812 C 249.097656 27.757812 248.996094 27.757812 248.894531 27.757812 C 248.75 25.953125 249.117188 25.210938 250.125 23.746094 C 250.089844 23.035156 250.089844 23.035156 249.816406 22.515625 C 250.167969 22.378906 250.515625 22.246094 250.875 22.109375 C 251.417969 21.851562 251.417969 21.851562 251.972656 21.589844 C 252.074219 21.285156 252.175781 20.976562 252.28125 20.664062 Z M 252.28125 20.664062 "/>
<path style=" stroke:none;fill-rule:nonzero;fill:rgb(28.627451%,27.058824%,26.666667%);fill-opacity:1;" d="M 44.355469 28.375 C 46.289062 28.375 48.21875 28.375 50.210938 28.375 C 50.210938 28.476562 50.210938 28.578125 50.210938 28.683594 C 49.949219 28.699219 49.691406 28.71875 49.421875 28.738281 C 49.085938 28.765625 48.746094 28.789062 48.398438 28.816406 C 48.0625 28.84375 47.726562 28.867188 47.382812 28.894531 C 46.53125 28.9375 46.53125 28.9375 45.898438 29.300781 C 45.753906 30.105469 45.753906 30.105469 45.703125 31.082031 C 45.675781 31.445312 45.652344 31.804688 45.625 32.175781 C 45.585938 32.746094 45.585938 32.746094 45.550781 33.328125 C 45.523438 33.707031 45.496094 34.089844 45.46875 34.480469 C 45.40625 35.425781 45.339844 36.371094 45.28125 37.316406 C 45.179688 37.316406 45.078125 37.316406 44.972656 37.316406 C 44.964844 37.078125 44.957031 36.839844 44.949219 36.597656 C 44.914062 35.519531 44.875 34.441406 44.839844 33.367188 C 44.828125 32.992188 44.8125 32.617188 44.800781 32.230469 C 44.789062 31.871094 44.777344 31.511719 44.761719 31.144531 C 44.75 30.8125 44.738281 30.480469 44.726562 30.140625 C 44.699219 29.269531 44.699219 29.269531 44.355469 28.375 Z M 44.355469 28.375 "/>
<path style=" stroke:none;fill-rule:nonzero;fill:rgb(84.313725%,30.588235%,30.588235%);fill-opacity:1;" d="M 206.074219 26.214844 C 206.277344 26.214844 206.484375 26.214844 206.691406 26.214844 C 206.492188 28.335938 205.996094 30.328125 205.441406 32.382812 C 205.355469 32.710938 205.265625 33.039062 205.175781 33.375 C 204.964844 34.175781 204.75 34.976562 204.535156 35.777344 C 204.433594 35.777344 204.332031 35.777344 204.226562 35.777344 C 204.160156 33.894531 204.222656 32.316406 204.84375 30.53125 C 205.046875 30.53125 205.25 30.53125 205.460938 30.53125 C 205.441406 30.066406 205.441406 30.066406 205.421875 29.589844 C 205.460938 28.316406 205.683594 27.414062 206.074219 26.214844 Z M 206.074219 26.214844 "/>
<path style=" stroke:none;fill-rule:nonzero;fill:rgb(81.960784%,33.72549%,33.72549%);fill-opacity:1;" d="M 263.679688 36.699219 C 264.097656 37.957031 263.707031 38.855469 263.332031 40.074219 C 263.261719 40.308594 263.191406 40.539062 263.121094 40.777344 C 262.507812 42.769531 261.765625 44.671875 260.90625 46.570312 C 260.542969 45.472656 260.691406 45.121094 261.039062 44.046875 C 261.128906 43.765625 261.21875 43.488281 261.308594 43.203125 C 261.378906 42.992188 261.449219 42.777344 261.523438 42.5625 C 261.726562 42.5625 261.929688 42.5625 262.136719 42.5625 C 262.335938 41.46875 262.472656 40.390625 262.5625 39.285156 C 262.675781 38.179688 262.867188 37.511719 263.679688 36.699219 Z M 263.679688 36.699219 "/>
<path style=" stroke:none;fill-rule:nonzero;fill:rgb(19.607843%,17.647059%,16.470588%);fill-opacity:1;" d="M 109.351562 37.007812 C 109.453125 37.007812 109.554688 37.007812 109.660156 37.007812 C 109.660156 38.027344 109.660156 39.042969 109.660156 40.09375 C 109.152344 40.09375 108.644531 40.09375 108.121094 40.09375 C 107.917969 39.890625 107.714844 39.6875 107.503906 39.476562 C 107.503906 39.171875 107.503906 38.867188 107.503906 38.550781 C 107.199219 38.652344 106.894531 38.753906 106.582031 38.859375 C 106.683594 38.453125 106.785156 38.046875 106.886719 37.625 C 107.238281 37.582031 107.585938 37.539062 107.949219 37.492188 C 108.984375 37.4375 108.984375 37.4375 109.351562 37.007812 Z M 107.195312 37.933594 C 107.398438 38.136719 107.601562 38.339844 107.8125 38.550781 C 107.8125 38.347656 107.8125 38.144531 107.8125 37.933594 C 107.609375 37.933594 107.40625 37.933594 107.195312 37.933594 Z M 107.195312 37.933594 "/>
<path style=" stroke:none;fill-rule:nonzero;fill:rgb(28.235294%,26.666667%,25.490196%);fill-opacity:1;" d="M 96.722656 28.375 C 101.90625 28.375 107.089844 28.375 112.433594 28.375 C 112.433594 28.476562 112.433594 28.578125 112.433594 28.683594 C 107.554688 28.785156 102.675781 28.886719 97.648438 28.992188 C 97.546875 29.195312 97.445312 29.398438 97.339844 29.609375 C 97.136719 29.199219 96.933594 28.792969 96.722656 28.375 Z M 96.722656 28.375 "/>
<path style=" stroke:none;fill-rule:nonzero;fill:rgb(84.705882%,30.588235%,30.196078%);fill-opacity:1;" d="M 230.101562 19.738281 C 230.101562 19.941406 230.101562 20.144531 230.101562 20.355469 C 229.828125 20.386719 229.554688 20.417969 229.273438 20.453125 C 227.5625 20.808594 226.566406 21.648438 225.445312 22.957031 C 225.238281 23.191406 225.035156 23.425781 224.824219 23.667969 C 224.304688 24.300781 223.808594 24.9375 223.324219 25.597656 C 223.53125 24.253906 223.933594 23.105469 224.558594 21.898438 C 225.289062 21.375 225.289062 21.375 226.097656 20.972656 C 226.332031 20.75 226.566406 20.527344 226.8125 20.296875 C 227.972656 19.511719 228.722656 19.644531 230.101562 19.738281 Z M 230.101562 19.738281 "/>
<path style=" stroke:none;fill-rule:nonzero;fill:rgb(94.901961%,20.784314%,20.392157%);fill-opacity:1;" d="M 252.898438 48.730469 C 253.101562 49.035156 253.304688 49.339844 253.511719 49.652344 C 253.410156 49.960938 253.308594 50.265625 253.207031 50.578125 C 253.003906 50.578125 252.796875 50.578125 252.589844 50.578125 C 252.488281 50.886719 252.386719 51.191406 252.28125 51.503906 C 251.46875 51.503906 250.65625 51.503906 249.816406 51.503906 C 249.816406 51.707031 249.816406 51.910156 249.816406 52.121094 C 249.410156 52.019531 249.003906 51.917969 248.585938 51.8125 C 248.929688 51.554688 249.277344 51.296875 249.625 51.042969 C 249.816406 50.898438 250.011719 50.753906 250.210938 50.609375 C 250.742188 50.269531 250.742188 50.269531 251.355469 50.269531 C 251.457031 49.964844 251.558594 49.660156 251.664062 49.347656 C 252.300781 48.980469 252.300781 48.980469 252.898438 48.730469 Z M 252.898438 48.730469 "/>
<path style=" stroke:none;fill-rule:nonzero;fill:rgb(24.313725%,23.137255%,22.352941%);fill-opacity:1;" d="M 70.539062 36.390625 C 70.742188 36.390625 70.945312 36.390625 71.15625 36.390625 C 71.15625 38.328125 71.15625 40.261719 71.15625 42.253906 C 70.851562 42.152344 70.546875 42.046875 70.230469 41.945312 C 70.230469 41.742188 70.230469 41.535156 70.230469 41.328125 C 69.722656 41.226562 69.214844 41.125 68.691406 41.019531 C 68.855469 40.742188 68.855469 40.742188 69.019531 40.460938 C 69.410156 39.75 69.410156 39.75 69 38.859375 C 69.925781 39.167969 69.925781 39.167969 70.539062 40.09375 C 70.640625 39.074219 70.742188 38.058594 70.847656 37.007812 C 70.644531 36.90625 70.441406 36.804688 70.230469 36.699219 C 70.332031 36.597656 70.433594 36.496094 70.539062 36.390625 Z M 70.539062 36.390625 "/>
<path style=" stroke:none;fill-rule:nonzero;fill:rgb(26.666667%,24.705882%,24.313725%);fill-opacity:1;" d="M 125.988281 28.375 C 128.019531 28.375 130.050781 28.375 132.148438 28.375 C 132.046875 28.679688 131.945312 28.984375 131.839844 29.300781 C 131.839844 29.09375 131.839844 28.890625 131.839844 28.683594 C 130.417969 28.683594 128.992188 28.683594 127.527344 28.683594 C 127.324219 29.394531 127.121094 30.105469 126.910156 30.839844 C 126.707031 30.839844 126.503906 30.839844 126.292969 30.839844 C 126.257812 31.089844 126.21875 31.335938 126.179688 31.59375 C 126.117188 31.855469 126.050781 32.113281 125.988281 32.382812 C 125.683594 32.535156 125.683594 32.535156 125.371094 32.691406 C 125.53125 32.199219 125.691406 31.707031 125.851562 31.214844 C 126.054688 30.296875 126.054688 30.296875 125.988281 28.375 Z M 125.988281 28.375 "/>
<path style=" stroke:none;fill-rule:nonzero;fill:rgb(22.745098%,21.960784%,21.568627%);fill-opacity:1;" d="M 113.050781 46.261719 C 113.253906 46.261719 113.457031 46.261719 113.664062 46.261719 C 113.664062 48.09375 113.664062 49.925781 113.664062 51.8125 C 113.359375 51.8125 113.054688 51.8125 112.742188 51.8125 C 112.742188 51.609375 112.742188 51.40625 112.742188 51.195312 C 112.335938 50.992188 111.929688 50.789062 111.507812 50.578125 C 111.761719 50.464844 112.015625 50.351562 112.277344 50.234375 C 112.53125 50.042969 112.789062 49.851562 113.050781 49.652344 C 113.175781 48.691406 113.175781 48.691406 113.050781 47.804688 C 112.746094 47.703125 112.4375 47.601562 112.125 47.496094 C 112.328125 47.394531 112.53125 47.292969 112.742188 47.1875 C 112.84375 46.882812 112.945312 46.578125 113.050781 46.261719 Z M 113.050781 46.261719 "/>
<path style=" stroke:none;fill-rule:nonzero;fill:rgb(81.960784%,32.941176%,31.372549%);fill-opacity:1;" d="M 234.414062 44.101562 C 234.617188 44.101562 234.820312 44.101562 235.03125 44.101562 C 234.835938 45.617188 234.191406 46.84375 233.511719 48.1875 C 233.398438 48.414062 233.289062 48.640625 233.175781 48.875 C 232.335938 50.539062 232.335938 50.539062 231.644531 50.886719 C 231.542969 50.378906 231.441406 49.871094 231.335938 49.347656 C 231.539062 49.242188 231.742188 49.140625 231.949219 49.039062 C 232.152344 48.414062 232.152344 48.414062 232.257812 47.804688 C 232.5625 47.804688 232.867188 47.804688 233.183594 47.804688 C 233.246094 47.613281 233.308594 47.425781 233.375 47.230469 C 233.722656 46.1875 234.066406 45.144531 234.414062 44.101562 Z M 234.414062 44.101562 "/>
<path style=" stroke:none;fill-rule:nonzero;fill:rgb(30.196078%,28.627451%,27.843137%);fill-opacity:1;" d="M 145.085938 28.375 C 149.050781 28.375 153.011719 28.375 157.097656 28.375 C 157.097656 28.476562 157.097656 28.578125 157.097656 28.683594 C 156.808594 28.6875 156.515625 28.695312 156.21875 28.699219 C 155.136719 28.726562 154.054688 28.75 152.972656 28.78125 C 152.503906 28.792969 152.035156 28.800781 151.570312 28.8125 C 150.894531 28.828125 150.222656 28.84375 149.546875 28.863281 C 148.941406 28.878906 148.941406 28.878906 148.320312 28.890625 C 147.3125 28.984375 146.605469 29.171875 145.699219 29.609375 C 145.496094 29.199219 145.292969 28.792969 145.085938 28.375 Z M 145.085938 28.375 "/>
<path style=" stroke:none;fill-rule:nonzero;fill:rgb(87.45098%,27.058824%,26.27451%);fill-opacity:1;" d="M 248.894531 17.886719 C 248.570312 18.640625 248.300781 19.101562 247.679688 19.652344 C 246.886719 20.53125 246.667969 21.300781 246.351562 22.4375 C 246.25 22.796875 246.144531 23.160156 246.039062 23.53125 C 245.964844 23.804688 245.890625 24.082031 245.8125 24.363281 C 245.609375 24.261719 245.40625 24.160156 245.195312 24.054688 C 245.15625 21.570312 246.03125 20.398438 247.621094 18.53125 C 248.277344 17.886719 248.277344 17.886719 248.894531 17.886719 Z M 248.894531 17.886719 "/>
<path style=" stroke:none;fill-rule:nonzero;fill:rgb(86.27451%,28.235294%,27.843137%);fill-opacity:1;" d="M 220.246094 33 C 220.738281 34.234375 220.347656 35.289062 219.996094 36.507812 C 219.941406 36.707031 219.886719 36.90625 219.828125 37.113281 C 219.492188 38.324219 219.113281 39.519531 218.707031 40.710938 C 218.605469 40.710938 218.503906 40.710938 218.398438 40.710938 C 218.367188 38.8125 218.367188 38.8125 218.398438 38.242188 C 218.5 38.140625 218.601562 38.039062 218.707031 37.933594 C 218.738281 37.628906 218.769531 37.324219 218.800781 37.007812 C 218.984375 35.550781 219.609375 34.308594 220.246094 33 Z M 220.246094 33 "/>
<path style=" stroke:none;fill-rule:nonzero;fill:rgb(83.137255%,33.72549%,34.117647%);fill-opacity:1;" d="M 215.007812 29.609375 C 215.355469 30.765625 215.355469 30.765625 215.007812 31.457031 C 214.941406 31.933594 214.882812 32.40625 214.835938 32.882812 C 214.808594 33.136719 214.785156 33.386719 214.757812 33.648438 C 214.738281 33.839844 214.71875 34.035156 214.699219 34.234375 C 214.496094 34.234375 214.292969 34.234375 214.085938 34.234375 C 213.882812 35.558594 213.679688 36.878906 213.46875 38.242188 C 213.265625 38.242188 213.0625 38.242188 212.851562 38.242188 C 213.039062 36.386719 213.414062 34.671875 213.929688 32.882812 C 214 32.636719 214.070312 32.386719 214.140625 32.132812 C 214.652344 30.316406 214.652344 30.316406 215.007812 29.609375 Z M 215.007812 29.609375 "/>
<path style=" stroke:none;fill-rule:nonzero;fill:rgb(24.313725%,22.745098%,22.352941%);fill-opacity:1;" d="M 187.285156 40.09375 C 188.59375 41.300781 189.394531 42.136719 189.476562 43.960938 C 189.480469 44.730469 189.46875 45.492188 189.441406 46.261719 C 189.339844 46.261719 189.238281 46.261719 189.132812 46.261719 C 189.03125 45.449219 188.929688 44.632812 188.824219 43.792969 C 188.621094 43.996094 188.417969 44.203125 188.210938 44.410156 C 188.007812 44.207031 187.804688 44.003906 187.59375 43.792969 C 187.796875 43.082031 188 42.371094 188.210938 41.636719 C 187.804688 41.433594 187.398438 41.226562 186.976562 41.019531 C 187.078125 40.714844 187.179688 40.40625 187.285156 40.09375 Z M 187.285156 40.09375 "/>
<path style=" stroke:none;fill-rule:nonzero;fill:rgb(84.313725%,29.803922%,29.411765%);fill-opacity:1;" d="M 236.878906 37.007812 C 237.222656 38.03125 237.148438 38.628906 236.8125 39.644531 C 236.730469 39.90625 236.644531 40.167969 236.558594 40.433594 C 236.421875 40.839844 236.421875 40.839844 236.28125 41.25 C 236.191406 41.523438 236.105469 41.796875 236.011719 42.078125 C 235.789062 42.753906 235.566406 43.429688 235.339844 44.101562 C 235.238281 44.101562 235.136719 44.101562 235.03125 44.101562 C 234.875 41.421875 234.875 41.421875 235.957031 40.09375 C 236.15625 39.371094 236.300781 38.648438 236.4375 37.910156 C 236.570312 37.316406 236.570312 37.316406 236.878906 37.007812 Z M 236.878906 37.007812 "/>
<path style=" stroke:none;fill-rule:nonzero;fill:rgb(78.039216%,34.117647%,34.117647%);fill-opacity:1;" d="M 205.460938 16.652344 C 206.664062 17.128906 207.292969 17.679688 207.925781 18.8125 C 208.277344 21.378906 207.730469 23.765625 207 26.214844 C 206.898438 26.214844 206.796875 26.214844 206.691406 26.214844 C 206.734375 25.71875 206.78125 25.226562 206.828125 24.730469 C 206.863281 24.316406 206.863281 24.316406 206.902344 23.894531 C 207 23.128906 207 23.128906 207.308594 22.207031 C 207.378906 20.707031 207.433594 19.535156 206.691406 18.195312 C 206.292969 17.773438 205.882812 17.359375 205.460938 16.960938 C 205.460938 16.859375 205.460938 16.757812 205.460938 16.652344 Z M 205.460938 16.652344 "/>
<path style=" stroke:none;fill-rule:nonzero;fill:rgb(83.137255%,30.196078%,30.980392%);fill-opacity:1;" d="M 222.710938 25.597656 C 222.914062 25.597656 223.117188 25.597656 223.324219 25.597656 C 222.503906 28.066406 221.683594 30.53125 220.863281 33 C 220.761719 33 220.660156 33 220.554688 33 C 220.671875 30.238281 221.464844 28.042969 222.710938 25.597656 Z M 222.710938 25.597656 "/>
<path style=" stroke:none;fill-rule:nonzero;fill:rgb(84.313725%,36.862745%,36.470588%);fill-opacity:1;" d="M 218.398438 44.410156 C 218.5 44.410156 218.601562 44.410156 218.707031 44.410156 C 218.714844 44.734375 218.722656 45.058594 218.730469 45.394531 C 218.792969 48.949219 218.792969 48.949219 220.246094 52.121094 C 221.035156 52.628906 221.035156 52.628906 221.785156 52.738281 C 221.785156 52.839844 221.785156 52.941406 221.785156 53.046875 C 221.074219 53.046875 220.363281 53.046875 219.628906 53.046875 C 218.070312 50.273438 218.277344 47.488281 218.398438 44.410156 Z M 218.398438 44.410156 "/>
<path style=" stroke:none;fill-rule:nonzero;fill:rgb(20%,17.254902%,16.862745%);fill-opacity:1;" d="M 173.730469 46.261719 C 174.648438 46.414062 174.648438 46.414062 175.582031 46.570312 C 175.472656 46.753906 175.363281 46.9375 175.253906 47.128906 C 174.863281 47.835938 174.863281 47.835938 175.273438 48.730469 C 174.96875 48.832031 174.664062 48.933594 174.347656 49.039062 C 173.867188 48.691406 173.867188 48.691406 173.425781 48.113281 C 173.519531 47.128906 173.519531 47.128906 173.730469 46.261719 Z M 172.191406 48.730469 C 172.699219 48.730469 173.207031 48.730469 173.730469 48.730469 C 173.730469 48.832031 173.730469 48.933594 173.730469 49.039062 C 173.222656 49.039062 172.714844 49.039062 172.191406 49.039062 C 172.191406 48.9375 172.191406 48.832031 172.191406 48.730469 Z M 172.191406 48.730469 "/>
<path style=" stroke:none;fill-rule:nonzero;fill:rgb(81.960784%,29.803922%,29.411765%);fill-opacity:1;" d="M 221.167969 18.8125 C 221.269531 19.21875 221.371094 19.628906 221.476562 20.046875 C 221.273438 20.046875 221.070312 20.046875 220.863281 20.046875 C 220.761719 20.351562 220.660156 20.65625 220.554688 20.972656 C 220.25 21.125 220.25 21.125 219.9375 21.28125 C 219.84375 21.523438 219.746094 21.765625 219.648438 22.011719 C 219.316406 22.832031 219.046875 23.175781 218.398438 23.746094 C 218.226562 23.917969 218.054688 24.089844 217.878906 24.269531 C 217.742188 24.402344 217.609375 24.535156 217.472656 24.671875 C 217.890625 23.152344 218.535156 22.117188 219.496094 20.875 C 219.621094 20.710938 219.75 20.542969 219.878906 20.375 C 220.78125 19.203125 220.78125 19.203125 221.167969 18.8125 Z M 221.167969 18.8125 "/>
<path style=" stroke:none;fill-rule:nonzero;fill:rgb(85.882353%,28.627451%,30.588235%);fill-opacity:1;" d="M 199.300781 16.960938 C 199.402344 17.167969 199.503906 17.371094 199.605469 17.578125 C 199.3125 18.304688 199.003906 19.023438 198.683594 19.738281 C 198.574219 20.148438 198.46875 20.558594 198.375 20.972656 C 198.273438 21.175781 198.171875 21.378906 198.066406 21.589844 C 197.433594 21.78125 197.433594 21.78125 196.835938 21.898438 C 197.296875 20.25 198.0625 18.203125 199.300781 16.960938 Z M 199.300781 16.960938 "/>
<path style=" stroke:none;fill-rule:nonzero;fill:rgb(92.54902%,22.352941%,22.352941%);fill-opacity:1;" d="M 206.074219 54.589844 C 206.277344 54.589844 206.484375 54.589844 206.691406 54.589844 C 206.691406 55.097656 206.691406 55.605469 206.691406 56.128906 C 204.121094 56.5 201.582031 56.46875 198.992188 56.4375 C 198.992188 56.335938 198.992188 56.234375 198.992188 56.128906 C 199.28125 56.109375 199.28125 56.109375 199.574219 56.089844 C 200.445312 56.023438 201.316406 55.953125 202.1875 55.878906 C 202.492188 55.859375 202.792969 55.835938 203.105469 55.816406 C 203.394531 55.789062 203.6875 55.765625 203.984375 55.738281 C 204.253906 55.71875 204.519531 55.699219 204.796875 55.675781 C 205.578125 55.566406 205.578125 55.566406 206.074219 54.589844 Z M 206.074219 54.589844 "/>
<path style=" stroke:none;fill-rule:nonzero;fill:rgb(81.960784%,32.941176%,33.72549%);fill-opacity:1;" d="M 204.691406 16.039062 C 205.070312 16.191406 205.070312 16.191406 205.460938 16.347656 C 204.324219 16.710938 203.257812 16.652344 202.070312 16.652344 C 201.246094 16.734375 200.429688 16.847656 199.605469 16.960938 C 201.09375 15.40625 202.695312 15.46875 204.691406 16.039062 Z M 204.691406 16.039062 "/>
<path style=" stroke:none;fill-rule:nonzero;fill:rgb(23.529412%,22.352941%,22.352941%);fill-opacity:1;" d="M 113.355469 28.375 C 113.457031 28.375 113.558594 28.375 113.664062 28.375 C 113.664062 30.003906 113.664062 31.628906 113.664062 33.308594 C 113.460938 33.308594 113.257812 33.308594 113.050781 33.308594 C 112.546875 32.539062 112.546875 32.539062 112.125 31.765625 C 112.328125 31.460938 112.53125 31.15625 112.742188 30.839844 C 112.945312 30.839844 113.148438 30.839844 113.355469 30.839844 C 113.355469 30.027344 113.355469 29.210938 113.355469 28.375 Z M 113.355469 28.375 "/>
<path style=" stroke:none;fill-rule:nonzero;fill:rgb(86.666667%,29.019608%,29.411765%);fill-opacity:1;" d="M 262.445312 16.347656 C 263.625 17.402344 264.210938 18.199219 264.601562 19.738281 C 264.296875 19.738281 263.992188 19.738281 263.679688 19.738281 C 263.578125 19.433594 263.476562 19.128906 263.371094 18.8125 C 262.597656 18.4375 262.597656 18.4375 261.832031 18.195312 C 262.035156 18.09375 262.238281 17.992188 262.445312 17.886719 C 262.445312 17.378906 262.445312 16.871094 262.445312 16.347656 Z M 262.445312 16.347656 "/>
<path style=" stroke:none;fill-rule:nonzero;fill:rgb(99.607843%,87.843137%,88.235294%);fill-opacity:1;" d="M 201.148438 24.363281 C 201.550781 25.492188 201.347656 26.238281 201.011719 27.371094 C 200.925781 27.675781 200.835938 27.980469 200.746094 28.292969 C 200.675781 28.523438 200.605469 28.753906 200.53125 28.992188 C 200.429688 28.582031 200.328125 28.175781 200.222656 27.757812 C 200.019531 27.757812 199.816406 27.757812 199.605469 27.757812 C 199.984375 26.507812 200.4375 25.460938 201.148438 24.363281 Z M 201.148438 24.363281 "/>
<path style=" stroke:none;fill-rule:nonzero;fill:rgb(98.823529%,89.019608%,89.019608%);fill-opacity:1;" d="M 231.335938 51.503906 C 231.4375 51.707031 231.539062 51.910156 231.644531 52.121094 C 231.082031 53.558594 230.421875 54.3125 229.179688 55.207031 C 228.976562 55.410156 228.773438 55.613281 228.5625 55.824219 C 228.359375 55.617188 228.15625 55.414062 227.945312 55.207031 C 228.140625 55.015625 228.332031 54.828125 228.53125 54.632812 C 228.78125 54.382812 229.035156 54.132812 229.292969 53.875 C 229.667969 53.503906 229.667969 53.503906 230.050781 53.128906 C 230.757812 52.429688 230.757812 52.429688 231.335938 51.503906 Z M 231.335938 51.503906 "/>
<path style=" stroke:none;fill-rule:nonzero;fill:rgb(25.882353%,24.705882%,24.705882%);fill-opacity:1;" d="M 24.335938 16.960938 C 24.796875 17.367188 24.796875 17.367188 25.257812 17.886719 C 25.257812 18.191406 25.257812 18.5 25.257812 18.8125 C 24.488281 19.488281 24.488281 19.488281 23.71875 20.046875 C 23.3125 19.84375 22.90625 19.640625 22.488281 19.429688 C 22.691406 19.328125 22.894531 19.226562 23.101562 19.121094 C 23.203125 18.917969 23.304688 18.714844 23.410156 18.503906 C 23.570312 18.351562 23.726562 18.199219 23.890625 18.042969 C 24.40625 17.613281 24.40625 17.613281 24.335938 16.960938 Z M 24.335938 16.960938 "/>
<path style=" stroke:none;fill-rule:nonzero;fill:rgb(24.705882%,23.137255%,22.745098%);fill-opacity:1;" d="M 12.011719 48.113281 C 12.421875 48.113281 12.828125 48.113281 13.246094 48.113281 C 13.347656 48.316406 13.449219 48.519531 13.554688 48.730469 C 13.757812 48.628906 13.960938 48.527344 14.167969 48.421875 C 14.167969 48.726562 14.167969 49.03125 14.167969 49.347656 C 14.578125 49.347656 14.984375 49.347656 15.402344 49.347656 C 15.402344 49.550781 15.402344 49.753906 15.402344 49.960938 C 15.199219 49.960938 14.996094 49.960938 14.785156 49.960938 C 14.683594 50.167969 14.582031 50.371094 14.476562 50.578125 C 14.066406 50.226562 13.65625 49.875 13.246094 49.519531 C 13.015625 49.324219 12.789062 49.125 12.550781 48.921875 C 12.375 48.757812 12.195312 48.589844 12.011719 48.421875 C 12.011719 48.320312 12.011719 48.21875 12.011719 48.113281 Z M 12.011719 48.113281 "/>
<path style=" stroke:none;fill-rule:nonzero;fill:rgb(88.235294%,25.490196%,25.490196%);fill-opacity:1;" d="M 202.070312 42.253906 C 202.171875 42.253906 202.273438 42.253906 202.378906 42.253906 C 202.425781 44.71875 202.425781 44.71875 202.070312 45.644531 C 201.765625 45.796875 201.765625 45.796875 201.457031 45.953125 C 201.253906 46.886719 201.253906 46.886719 201.148438 47.804688 C 201.046875 47.804688 200.945312 47.804688 200.839844 47.804688 C 200.839844 46.988281 200.839844 46.175781 200.839844 45.335938 C 201.042969 45.335938 201.246094 45.335938 201.457031 45.335938 C 201.5 44.941406 201.542969 44.546875 201.589844 44.140625 C 201.671875 43.40625 201.738281 42.917969 202.070312 42.253906 Z M 202.070312 42.253906 "/>
<path style=" stroke:none;fill-rule:nonzero;fill:rgb(83.137255%,36.078431%,35.686275%);fill-opacity:1;" d="M 197.449219 40.402344 C 197.75 41.363281 197.753906 42.105469 197.625 43.101562 C 197.59375 43.347656 197.5625 43.59375 197.527344 43.847656 C 197.492188 44.125 197.492188 44.125 197.449219 44.410156 C 197.246094 44.410156 197.042969 44.410156 196.835938 44.410156 C 196.835938 45.023438 196.835938 45.632812 196.835938 46.261719 C 196.632812 46.261719 196.429688 46.261719 196.21875 46.261719 C 196.410156 44.234375 196.878906 42.355469 197.449219 40.402344 Z M 197.449219 40.402344 "/>
<path style=" stroke:none;fill-rule:nonzero;fill:rgb(82.352941%,32.54902%,32.156863%);fill-opacity:1;" d="M 200.222656 24.980469 C 200.425781 25.082031 200.628906 25.183594 200.839844 25.289062 C 200.503906 25.953125 200.164062 26.613281 199.820312 27.273438 C 199.722656 27.464844 199.628906 27.652344 199.53125 27.847656 C 198.789062 29.265625 198.789062 29.265625 197.757812 29.609375 C 197.757812 29.300781 197.757812 28.996094 197.757812 28.683594 C 198.0625 28.683594 198.367188 28.683594 198.683594 28.683594 C 198.722656 28.460938 198.757812 28.238281 198.796875 28.007812 C 198.988281 27.152344 199.261719 26.402344 199.605469 25.597656 C 199.808594 25.597656 200.015625 25.597656 200.222656 25.597656 C 200.222656 25.394531 200.222656 25.191406 200.222656 24.980469 Z M 200.222656 24.980469 "/>
<path style=" stroke:none;fill-rule:nonzero;fill:rgb(99.607843%,87.058824%,86.27451%);fill-opacity:1;" d="M 226.097656 57.054688 C 225.53125 57.652344 225.066406 57.957031 224.246094 58.058594 C 223.5 58.074219 222.761719 58.0625 222.015625 58.039062 C 221.757812 58.035156 221.5 58.03125 221.230469 58.027344 C 220.59375 58.015625 219.957031 58 219.320312 57.980469 C 219.320312 57.878906 219.320312 57.777344 219.320312 57.671875 C 219.585938 57.65625 219.847656 57.644531 220.121094 57.628906 C 222.398438 57.503906 222.398438 57.503906 224.617188 57.015625 C 225.480469 56.746094 225.480469 56.746094 226.097656 57.054688 Z M 226.097656 57.054688 "/>
<path style=" stroke:none;fill-rule:nonzero;fill:rgb(85.490196%,27.843137%,27.058824%);fill-opacity:1;" d="M 258.132812 32.074219 C 258.335938 32.074219 258.539062 32.074219 258.75 32.074219 C 258.773438 32.5625 258.792969 33.050781 258.808594 33.539062 C 258.824219 33.949219 258.824219 33.949219 258.839844 34.363281 C 258.734375 35.296875 258.441406 35.699219 257.824219 36.390625 C 257.800781 34.902344 257.839844 33.542969 258.132812 32.074219 Z M 258.132812 32.074219 "/>
<path style=" stroke:none;fill-rule:nonzero;fill:rgb(84.313725%,32.54902%,33.333333%);fill-opacity:1;" d="M 216.855469 24.980469 C 217.1875 25.992188 217.132812 26.65625 216.875 27.679688 C 216.816406 27.925781 216.757812 28.171875 216.695312 28.425781 C 216.621094 28.707031 216.621094 28.707031 216.550781 28.992188 C 216.246094 28.992188 215.9375 28.992188 215.625 28.992188 C 215.523438 29.195312 215.421875 29.398438 215.316406 29.609375 C 215.492188 27.898438 216.125 26.511719 216.855469 24.980469 Z M 216.855469 24.980469 "/>
<path style=" stroke:none;fill-rule:nonzero;fill:rgb(83.137255%,34.509804%,34.117647%);fill-opacity:1;" d="M 195.910156 46.570312 C 196.011719 46.570312 196.113281 46.570312 196.21875 46.570312 C 196.285156 48.246094 196.25 49.613281 195.601562 51.195312 C 195.398438 51.195312 195.195312 51.195312 194.988281 51.195312 C 195.15625 49.582031 195.425781 48.121094 195.910156 46.570312 Z M 195.910156 46.570312 "/>
<path style=" stroke:none;fill-rule:nonzero;fill:rgb(83.529412%,30.196078%,29.411765%);fill-opacity:1;" d="M 240.882812 32.074219 C 240.984375 32.074219 241.085938 32.074219 241.191406 32.074219 C 241.292969 33.988281 241.023438 35.246094 240.269531 37.007812 C 239.84375 35.847656 240.085938 35.019531 240.402344 33.847656 C 240.492188 33.515625 240.578125 33.183594 240.671875 32.839844 C 240.742188 32.589844 240.8125 32.335938 240.882812 32.074219 Z M 240.882812 32.074219 "/>
<path style=" stroke:none;fill-rule:nonzero;fill:rgb(89.019608%,25.098039%,23.921569%);fill-opacity:1;" d="M 259.980469 44.410156 C 260.441406 44.714844 260.441406 44.714844 260.90625 45.027344 C 260.820312 45.476562 260.730469 45.929688 260.636719 46.378906 C 260.585938 46.628906 260.535156 46.878906 260.484375 47.136719 C 260.289062 47.804688 260.289062 47.804688 259.675781 48.421875 C 259.777344 47.097656 259.878906 45.773438 259.980469 44.410156 Z M 259.980469 44.410156 "/>
<path style=" stroke:none;fill-rule:nonzero;fill:rgb(99.607843%,90.196078%,90.196078%);fill-opacity:1;" d="M 236.878906 17.886719 C 237.183594 17.988281 237.488281 18.089844 237.804688 18.195312 C 238.515625 19.753906 238.863281 21.421875 238.726562 23.128906 C 238.625 23.128906 238.523438 23.128906 238.417969 23.128906 C 238.21875 22.488281 238.019531 21.847656 237.824219 21.203125 C 237.710938 20.84375 237.601562 20.488281 237.488281 20.117188 C 237.265625 19.378906 237.054688 18.640625 236.878906 17.886719 Z M 236.878906 17.886719 "/>
<path style=" stroke:none;fill-rule:nonzero;fill:rgb(80.784314%,36.078431%,34.901961%);fill-opacity:1;" d="M 188.824219 57.054688 C 190.453125 57.257812 192.078125 57.464844 193.753906 57.671875 C 193.753906 57.773438 193.753906 57.875 193.753906 57.980469 C 190.6875 58.429688 190.6875 58.429688 189.382812 57.867188 C 189.199219 57.699219 189.015625 57.535156 188.824219 57.363281 C 188.824219 57.261719 188.824219 57.160156 188.824219 57.054688 Z M 188.824219 57.054688 "/>
<path style=" stroke:none;fill-rule:nonzero;fill:rgb(80.784314%,29.803922%,30.588235%);fill-opacity:1;" d="M 203.304688 51.503906 C 204.1875 51.53125 204.707031 51.6875 205.359375 52.292969 C 206.691406 53.820312 206.691406 53.820312 206.691406 54.589844 C 206.386719 54.589844 206.082031 54.589844 205.769531 54.589844 C 205.703125 54.359375 205.640625 54.128906 205.574219 53.894531 C 205.03125 52.804688 204.328125 52.4375 203.304688 51.8125 C 203.304688 51.710938 203.304688 51.609375 203.304688 51.503906 Z M 203.304688 51.503906 "/>
<path style=" stroke:none;fill-rule:nonzero;fill:rgb(84.705882%,34.901961%,35.294118%);fill-opacity:1;" d="M 251.664062 49.347656 C 251.765625 49.550781 251.867188 49.753906 251.972656 49.960938 C 251.683594 50.773438 251.683594 50.773438 251.355469 51.503906 C 250.847656 51.503906 250.339844 51.503906 249.816406 51.503906 C 249.816406 51.707031 249.816406 51.910156 249.816406 52.121094 C 249.410156 52.019531 249.003906 51.917969 248.585938 51.8125 C 248.929688 51.554688 249.277344 51.296875 249.625 51.042969 C 249.816406 50.898438 250.011719 50.753906 250.210938 50.609375 C 250.742188 50.269531 250.742188 50.269531 251.355469 50.269531 C 251.457031 49.964844 251.558594 49.660156 251.664062 49.347656 Z M 251.664062 49.347656 "/>
<path style=" stroke:none;fill-rule:nonzero;fill:rgb(82.745098%,33.72549%,32.156863%);fill-opacity:1;" d="M 230.101562 38.242188 C 230.203125 38.242188 230.304688 38.242188 230.410156 38.242188 C 230.570312 40.21875 230.449219 41.320312 229.179688 42.871094 C 228.695312 41.898438 229.140625 41.214844 229.46875 40.210938 C 229.585938 39.84375 229.703125 39.476562 229.824219 39.097656 C 229.914062 38.816406 230.007812 38.535156 230.101562 38.242188 Z M 230.101562 38.242188 "/>
<path style=" stroke:none;fill-rule:nonzero;fill:rgb(91.764706%,22.745098%,22.352941%);fill-opacity:1;" d="M 263.679688 19.738281 C 263.984375 19.738281 264.289062 19.738281 264.601562 19.738281 C 265.011719 21.269531 264.9375 22.796875 264.910156 24.363281 C 264.808594 24.363281 264.707031 24.363281 264.601562 24.363281 C 264.292969 22.824219 263.988281 21.28125 263.679688 19.738281 Z M 263.679688 19.738281 "/>
<path style=" stroke:none;fill-rule:nonzero;fill:rgb(99.607843%,90.980392%,90.196078%);fill-opacity:1;" d="M 253.820312 20.355469 C 254.023438 20.457031 254.226562 20.558594 254.4375 20.664062 C 254.152344 21.078125 253.863281 21.488281 253.570312 21.898438 C 253.410156 22.125 253.25 22.355469 253.082031 22.589844 C 252.921875 22.769531 252.757812 22.949219 252.589844 23.128906 C 252.285156 23.128906 251.980469 23.128906 251.664062 23.128906 C 252.144531 21.953125 252.910156 21.222656 253.820312 20.355469 Z M 253.820312 20.355469 "/>
<path style=" stroke:none;fill-rule:nonzero;fill:rgb(23.137255%,21.176471%,20.392157%);fill-opacity:1;" d="M 185.128906 41.945312 C 185.433594 42.046875 185.738281 42.148438 186.054688 42.253906 C 186.054688 42.457031 186.054688 42.660156 186.054688 42.871094 C 186.359375 42.972656 186.664062 43.074219 186.976562 43.175781 C 186.570312 43.484375 186.164062 43.789062 185.746094 44.101562 C 185.320312 43.703125 184.910156 43.292969 184.511719 42.871094 C 184.511719 42.664062 184.511719 42.460938 184.511719 42.253906 C 184.714844 42.152344 184.921875 42.046875 185.128906 41.945312 Z M 185.128906 41.945312 "/>
<path style=" stroke:none;fill-rule:nonzero;fill:rgb(86.27451%,32.54902%,34.901961%);fill-opacity:1;" d="M 255.976562 52.121094 C 256.382812 52.121094 256.789062 52.121094 257.210938 52.121094 C 256.75 53.292969 256.050781 53.851562 255.054688 54.589844 C 255.246094 53.683594 255.542969 52.933594 255.976562 52.121094 Z M 255.976562 52.121094 "/>
<path style=" stroke:none;fill-rule:nonzero;fill:rgb(80.392157%,32.54902%,32.54902%);fill-opacity:1;" d="M 239.652344 50.578125 C 240.398438 51.324219 240.730469 52.101562 241.191406 53.046875 C 241.496094 53.503906 241.496094 53.503906 241.808594 53.972656 C 241.707031 54.277344 241.605469 54.582031 241.5 54.898438 C 240.527344 53.480469 239.785156 52.339844 239.652344 50.578125 Z M 239.652344 50.578125 "/>
<path style=" stroke:none;fill-rule:nonzero;fill:rgb(25.098039%,23.529412%,22.745098%);fill-opacity:1;" d="M 15.09375 50.269531 C 15.90625 50.371094 16.71875 50.472656 17.558594 50.578125 C 17.660156 50.886719 17.761719 51.191406 17.867188 51.503906 C 17.054688 51.402344 16.238281 51.300781 15.402344 51.195312 C 15.300781 50.890625 15.199219 50.585938 15.09375 50.269531 Z M 15.09375 50.269531 "/>
<path style=" stroke:none;fill-rule:nonzero;fill:rgb(25.882353%,23.137255%,23.137255%);fill-opacity:1;" d="M 161.101562 41.945312 C 161.40625 42.046875 161.710938 42.148438 162.027344 42.253906 C 162.238281 42.886719 162.238281 42.886719 162.335938 43.484375 C 162.03125 43.382812 161.726562 43.28125 161.410156 43.175781 C 161.207031 43.789062 161.003906 44.398438 160.792969 45.027344 C 160.589844 44.925781 160.386719 44.824219 160.179688 44.71875 C 160.484375 43.804688 160.789062 42.886719 161.101562 41.945312 Z M 161.101562 41.945312 "/>
<path style=" stroke:none;fill-rule:nonzero;fill:rgb(87.843137%,27.058824%,27.058824%);fill-opacity:1;" d="M 249.816406 24.054688 C 250.203125 24.828125 250.085938 25.085938 249.875 25.90625 C 249.820312 26.121094 249.769531 26.339844 249.714844 26.5625 C 249.507812 27.140625 249.507812 27.140625 248.894531 27.757812 C 248.800781 26.207031 248.898438 25.320312 249.816406 24.054688 Z M 249.816406 24.054688 "/>
<path style=" stroke:none;fill-rule:nonzero;fill:rgb(91.764706%,22.745098%,23.529412%);fill-opacity:1;" d="M 217.78125 24.363281 C 218.089844 25.289062 218.089844 25.289062 218.089844 26.214844 C 217.785156 26.367188 217.785156 26.367188 217.472656 26.523438 C 217.125 27.144531 217.125 27.144531 216.855469 27.757812 C 216.449219 26.53125 216.746094 25.871094 217.164062 24.671875 C 217.367188 24.570312 217.570312 24.46875 217.78125 24.363281 Z M 217.78125 24.363281 "/>
<path style=" stroke:none;fill-rule:nonzero;fill:rgb(87.45098%,30.588235%,30.196078%);fill-opacity:1;" d="M 200.839844 23.4375 C 201.144531 23.542969 201.449219 23.644531 201.761719 23.746094 C 202.121094 25 202.019531 25.664062 201.457031 26.832031 C 201.144531 25.714844 200.992188 24.585938 200.839844 23.4375 Z M 200.839844 23.4375 "/>
<path style=" stroke:none;fill-rule:nonzero;fill:rgb(94.509804%,22.352941%,20.392157%);fill-opacity:1;" d="M 251.050781 16.960938 C 250.855469 17.714844 250.855469 17.714844 250.433594 18.503906 C 249.46875 18.753906 249.46875 18.753906 248.585938 18.8125 C 249.027344 17.484375 249.636719 16.960938 251.050781 16.960938 Z M 251.050781 16.960938 "/>
<path style=" stroke:none;fill-rule:nonzero;fill:rgb(81.568627%,32.941176%,32.941176%);fill-opacity:1;" d="M 259.058594 48.421875 C 259.261719 48.421875 259.464844 48.421875 259.675781 48.421875 C 259.226562 49.6875 258.59375 50.710938 257.824219 51.8125 C 257.722656 51.609375 257.621094 51.40625 257.519531 51.195312 C 257.621094 50.890625 257.722656 50.585938 257.824219 50.269531 C 258.027344 50.269531 258.234375 50.269531 258.441406 50.269531 C 258.441406 49.863281 258.441406 49.457031 258.441406 49.039062 C 258.644531 49.039062 258.847656 49.039062 259.058594 49.039062 C 259.058594 48.832031 259.058594 48.628906 259.058594 48.421875 Z M 259.058594 48.421875 "/>
<path style=" stroke:none;fill-rule:nonzero;fill:rgb(85.490196%,29.803922%,29.411765%);fill-opacity:1;" d="M 244.886719 47.496094 C 245.742188 48.21875 245.972656 48.773438 246.179688 49.867188 C 246.226562 50.117188 246.277344 50.363281 246.328125 50.621094 C 246.359375 50.8125 246.394531 51 246.429688 51.195312 C 245.71875 50.648438 245.257812 50.222656 245.046875 49.332031 C 244.972656 48.722656 244.929688 48.109375 244.886719 47.496094 Z M 244.886719 47.496094 "/>
<path style=" stroke:none;fill-rule:nonzero;fill:rgb(88.627451%,25.882353%,27.058824%);fill-opacity:1;" d="M 232.257812 47.804688 C 232.5625 47.90625 232.867188 48.007812 233.183594 48.113281 C 232.574219 49.484375 232.574219 49.484375 231.949219 50.886719 C 231.746094 50.480469 231.542969 50.074219 231.335938 49.652344 C 231.539062 49.449219 231.742188 49.246094 231.949219 49.039062 C 232.148438 48.398438 232.148438 48.398438 232.257812 47.804688 Z M 232.257812 47.804688 "/>
<path style=" stroke:none;fill-rule:nonzero;fill:rgb(84.705882%,27.843137%,27.45098%);fill-opacity:1;" d="M 263.679688 36.699219 C 264.105469 37.988281 263.625 38.59375 263.0625 39.785156 C 262.960938 39.785156 262.859375 39.785156 262.753906 39.785156 C 262.640625 38.113281 262.640625 38.113281 263.214844 37.203125 C 263.367188 37.035156 263.519531 36.871094 263.679688 36.699219 Z M 263.679688 36.699219 "/>
<path style=" stroke:none;fill-rule:nonzero;fill:rgb(83.921569%,35.294118%,33.333333%);fill-opacity:1;" d="M 200.839844 26.832031 C 200.941406 26.832031 201.042969 26.832031 201.148438 26.832031 C 201.148438 27.847656 201.148438 28.867188 201.148438 29.914062 C 200.84375 30.019531 200.539062 30.121094 200.222656 30.222656 C 200.492188 27.871094 200.492188 27.871094 200.839844 26.832031 Z M 200.839844 26.832031 "/>
<path style=" stroke:none;fill-rule:nonzero;fill:rgb(82.745098%,33.333333%,32.941176%);fill-opacity:1;" d="M 254.519531 54.695312 C 254.695312 54.761719 254.871094 54.828125 255.054688 54.898438 C 254.613281 55.164062 254.167969 55.425781 253.726562 55.6875 C 253.355469 55.90625 253.355469 55.90625 252.976562 56.132812 C 252.28125 56.4375 252.28125 56.4375 251.355469 56.128906 C 251.738281 55.863281 252.125 55.601562 252.511719 55.339844 C 252.726562 55.195312 252.941406 55.046875 253.160156 54.894531 C 253.820312 54.589844 253.820312 54.589844 254.519531 54.695312 Z M 254.519531 54.695312 "/>
<path style=" stroke:none;fill-rule:nonzero;fill:rgb(86.666667%,29.019608%,28.627451%);fill-opacity:1;" d="M 245.503906 39.476562 C 245.605469 39.476562 245.707031 39.476562 245.8125 39.476562 C 245.925781 41.753906 245.925781 41.753906 245.351562 42.714844 C 245.199219 42.867188 245.046875 43.019531 244.886719 43.175781 C 244.886719 42.363281 244.886719 41.550781 244.886719 40.710938 C 245.089844 40.710938 245.296875 40.710938 245.503906 40.710938 C 245.503906 40.304688 245.503906 39.894531 245.503906 39.476562 Z M 245.503906 39.476562 "/>
<path style=" stroke:none;fill-rule:nonzero;fill:rgb(84.313725%,30.588235%,31.372549%);fill-opacity:1;" d="M 252.589844 16.039062 C 251.433594 16.980469 250.40625 17.578125 248.894531 17.578125 C 250.152344 16.378906 250.769531 15.820312 252.589844 16.039062 Z M 252.589844 16.039062 "/>
<path style=" stroke:none;fill-rule:nonzero;fill:rgb(91.764706%,22.745098%,21.568627%);fill-opacity:1;" d="M 230.101562 41.019531 C 230.332031 41.519531 230.332031 41.519531 230.410156 42.253906 C 229.8125 43.253906 229.8125 43.253906 229.179688 44.101562 C 228.949219 43.601562 228.949219 43.601562 228.871094 42.871094 C 229.46875 41.867188 229.46875 41.867188 230.101562 41.019531 Z M 230.101562 41.019531 "/>
<path style=" stroke:none;fill-rule:nonzero;fill:rgb(23.921569%,23.137255%,22.352941%);fill-opacity:1;" d="M 108.738281 40.09375 C 109.042969 40.09375 109.347656 40.09375 109.660156 40.09375 C 109.660156 40.804688 109.660156 41.519531 109.660156 42.253906 C 109.457031 42.253906 109.253906 42.253906 109.042969 42.253906 C 108.71875 41.519531 108.71875 41.519531 108.429688 40.710938 C 108.53125 40.507812 108.632812 40.304688 108.738281 40.09375 Z M 108.738281 40.09375 "/>
<path style=" stroke:none;fill-rule:nonzero;fill:rgb(92.941176%,22.745098%,22.352941%);fill-opacity:1;" d="M 247.660156 29.609375 C 248.09375 30.476562 247.816406 30.894531 247.527344 31.804688 C 247.4375 32.085938 247.347656 32.367188 247.257812 32.65625 C 247.1875 32.871094 247.117188 33.085938 247.042969 33.308594 C 246.941406 33.308594 246.839844 33.308594 246.738281 33.308594 C 246.621094 31.03125 246.621094 31.03125 247.199219 30.070312 C 247.351562 29.917969 247.503906 29.765625 247.660156 29.609375 Z M 247.660156 29.609375 "/>
<path style=" stroke:none;fill-rule:nonzero;fill:rgb(84.313725%,33.333333%,33.72549%);fill-opacity:1;" d="M 221.167969 18.8125 C 221.269531 19.21875 221.371094 19.628906 221.476562 20.046875 C 221.273438 20.046875 221.070312 20.046875 220.863281 20.046875 C 220.761719 20.351562 220.660156 20.65625 220.554688 20.972656 C 220.148438 21.074219 219.742188 21.175781 219.320312 21.28125 C 219.929688 20.464844 220.542969 19.652344 221.167969 18.8125 Z M 221.167969 18.8125 "/>
<path style=" stroke:none;fill-rule:nonzero;fill:rgb(99.215686%,90.588235%,87.843137%);fill-opacity:1;" d="M 232.875 49.039062 C 232.976562 49.039062 233.078125 49.039062 233.183594 49.039062 C 233.296875 50.429688 233.296875 50.429688 232.757812 51.136719 C 232.257812 51.503906 232.257812 51.503906 231.644531 51.503906 C 231.988281 50.589844 232.328125 49.859375 232.875 49.039062 Z M 232.875 49.039062 "/>
<path style=" stroke:none;fill-rule:nonzero;fill:rgb(98.823529%,91.372549%,89.411765%);fill-opacity:1;" d="M 250.742188 24.054688 C 251.050781 24.980469 251.050781 24.980469 250.816406 25.773438 C 250.433594 26.523438 250.433594 26.523438 249.507812 27.140625 C 249.816406 25.96875 250.066406 25.070312 250.742188 24.054688 Z M 250.742188 24.054688 "/>
<path style=" stroke:none;fill-rule:nonzero;fill:rgb(18.823529%,16.470588%,15.686275%);fill-opacity:1;" d="M 185.4375 46.261719 C 186.199219 46.566406 186.199219 46.566406 186.976562 46.878906 C 186.570312 47.285156 186.164062 47.691406 185.746094 48.113281 C 185.441406 48.011719 185.136719 47.910156 184.820312 47.804688 C 185.023438 47.292969 185.226562 46.785156 185.4375 46.261719 Z M 185.4375 46.261719 "/>
<path style=" stroke:none;fill-rule:nonzero;fill:rgb(23.921569%,21.568627%,20.784314%);fill-opacity:1;" d="M 129.375 31.457031 C 129.855469 31.84375 129.855469 31.84375 130.300781 32.382812 C 130.203125 33.058594 130.203125 33.058594 129.992188 33.617188 C 129.789062 33.617188 129.585938 33.617188 129.375 33.617188 C 129.257812 33.003906 129.15625 32.386719 129.066406 31.765625 C 129.167969 31.664062 129.269531 31.5625 129.375 31.457031 Z M 129.375 31.457031 "/>
<path style=" stroke:none;fill-rule:nonzero;fill:rgb(19.607843%,16.862745%,16.078431%);fill-opacity:1;" d="M 174.347656 29.914062 C 174.863281 30.003906 175.378906 30.105469 175.886719 30.222656 C 175.683594 30.632812 175.480469 31.039062 175.273438 31.457031 C 174.65625 31.148438 174.65625 31.148438 174.039062 30.222656 C 174.140625 30.121094 174.242188 30.019531 174.347656 29.914062 Z M 174.347656 29.914062 "/>
<path style=" stroke:none;fill-rule:nonzero;fill:rgb(83.921569%,33.333333%,33.72549%);fill-opacity:1;" d="M 245.195312 21.898438 C 245.503906 22.515625 245.503906 22.515625 245.273438 23.457031 C 245.144531 23.757812 245.019531 24.054688 244.886719 24.363281 C 244.582031 24.464844 244.277344 24.566406 243.964844 24.671875 C 244.289062 23.625 244.582031 22.816406 245.195312 21.898438 Z M 245.195312 21.898438 "/>
<path style=" stroke:none;fill-rule:nonzero;fill:rgb(80.784314%,29.411765%,30.588235%);fill-opacity:1;" d="M 205.460938 16.652344 C 206.339844 17.050781 207.035156 17.410156 207.617188 18.195312 C 207.675781 19.023438 207.675781 19.023438 207.617188 19.738281 C 207.511719 19.480469 207.511719 19.480469 207.40625 19.21875 C 206.890625 18.3125 206.203125 17.6875 205.460938 16.960938 C 205.460938 16.859375 205.460938 16.757812 205.460938 16.652344 Z M 205.460938 16.652344 "/>
<path style=" stroke:none;fill-rule:nonzero;fill:rgb(94.117647%,21.176471%,20.784314%);fill-opacity:1;" d="M 199.605469 16.960938 C 200.015625 17.0625 200.421875 17.167969 200.839844 17.269531 C 200.339844 17.902344 199.828125 18.515625 199.300781 19.121094 C 199.097656 19.121094 198.890625 19.121094 198.683594 19.121094 C 199.261719 17.65625 199.261719 17.65625 199.605469 16.960938 Z M 199.605469 16.960938 "/>
<path style=" stroke:none;fill-rule:nonzero;fill:rgb(94.117647%,21.176471%,22.352941%);fill-opacity:1;" d="M 230.410156 49.960938 C 231.046875 50.097656 231.046875 50.097656 231.644531 50.269531 C 231.644531 50.578125 231.644531 50.882812 231.644531 51.195312 C 231.234375 51.296875 230.828125 51.398438 230.410156 51.503906 C 230.238281 50.90625 230.238281 50.90625 230.101562 50.269531 C 230.203125 50.167969 230.304688 50.066406 230.410156 49.960938 Z M 230.410156 49.960938 "/>
<path style=" stroke:none;fill-rule:nonzero;fill:rgb(24.705882%,22.745098%,21.960784%);fill-opacity:1;" d="M 185.746094 39.167969 C 186.507812 39.472656 186.507812 39.472656 187.285156 39.785156 C 186.667969 40.402344 186.667969 40.402344 185.859375 40.441406 C 185.621094 40.425781 185.378906 40.414062 185.128906 40.402344 C 185.332031 39.996094 185.535156 39.585938 185.746094 39.167969 Z M 185.746094 39.167969 "/>
<path style=" stroke:none;fill-rule:nonzero;fill:rgb(82.745098%,30.196078%,32.54902%);fill-opacity:1;" d="M 252.28125 20.664062 C 252.6875 20.765625 253.09375 20.867188 253.511719 20.972656 C 252.902344 21.683594 252.292969 22.398438 251.664062 23.128906 C 251.5625 22.824219 251.460938 22.519531 251.355469 22.207031 C 251.800781 21.375 251.800781 21.375 252.28125 20.664062 Z M 252.28125 20.664062 "/>
<path style=" stroke:none;fill-rule:nonzero;fill:rgb(86.27451%,30.196078%,30.980392%);fill-opacity:1;" d="M 222.710938 17.578125 C 223.015625 17.679688 223.320312 17.78125 223.632812 17.886719 C 223.328125 18.347656 223.328125 18.347656 223.019531 18.8125 C 222.210938 18.871094 222.210938 18.871094 221.476562 18.8125 C 221.882812 18.40625 222.289062 18 222.710938 17.578125 Z M 222.710938 17.578125 "/>
</g>
</svg>
